<?xml version="1.0" encoding="UTF-8" standalone="no"?>
<svg
   xmlns:dc="http://purl.org/dc/elements/1.1/"
   xmlns:cc="http://creativecommons.org/ns#"
   xmlns:rdf="http://www.w3.org/1999/02/22-rdf-syntax-ns#"
   xmlns:svg="http://www.w3.org/2000/svg"
   xmlns="http://www.w3.org/2000/svg"
   xmlns:sodipodi="http://sodipodi.sourceforge.net/DTD/sodipodi-0.dtd"
   xmlns:inkscape="http://www.inkscape.org/namespaces/inkscape"
   sodipodi:docname="continuous-distributions-pspic9.pdf"
   id="svg7"
   version="1.2"
   viewBox="0 0 63.78582 50.01115"
   height="50.01115pt"
   width="63.78582pt">
  <metadata
     id="metadata13">
    <rdf:RDF>
      <cc:Work
         rdf:about="">
        <dc:format>image/svg+xml</dc:format>
        <dc:type
           rdf:resource="http://purl.org/dc/dcmitype/StillImage" />
      </cc:Work>
    </rdf:RDF>
  </metadata>
  <defs
     id="defs11" />
  <sodipodi:namedview
     id="namedview9"
     inkscape:window-height="480"
     inkscape:window-width="640"
     inkscape:pageshadow="2"
     inkscape:pageopacity="0"
     guidetolerance="10"
     gridtolerance="10"
     objecttolerance="10"
     borderopacity="1"
     bordercolor="#666666"
     pagecolor="#ffffff" />
  <g
     transform="translate(-113.38281,-411.44985)"
     id="surface1">
    <path
       id="path2"
       transform="matrix(0.1,0,0,-0.1,0,842)"
       d="m 1204.6875,3809.375 v 496.0547 c 0.2344,-13.0078 1.7969,-24.6094 2.8516,-37.5781 0.9375,-11.5625 1.7968,-21.9532 2.8515,-33.4766 0.9375,-10.3516 1.7969,-19.6484 2.8516,-29.9609 0.9375,-9.2969 1.7969,-17.6172 2.8516,-26.875 0.9375,-8.3985 1.7968,-15.8985 2.8515,-24.2579 0.9375,-7.5781 1.7969,-14.3359 2.8516,-21.914 0.9375,-6.875 1.7969,-13.0078 2.8515,-19.8828 0.9375,-6.25 1.7969,-11.836 2.8125,-18.086 0.9766,-5.7031 1.836,-10.8203 2.8516,-16.5234 0.9766,-5.2344 1.8359,-9.9219 2.8516,-15.1172 0.9375,-4.8047 1.8359,-9.1015 2.8515,-13.8672 0.9375,-4.414 1.836,-8.3984 2.8516,-12.7734 0.9375,-4.0625 1.8359,-7.7344 2.8516,-11.7578 0.9375,-3.75 1.8359,-7.1485 2.8515,-10.8985 0.9375,-3.4765 1.836,-6.5625 2.8516,-10.039 0.9375,-3.2031 1.8359,-6.1328 2.8515,-9.336 0.9375,-3.0078 1.836,-5.664 2.8516,-8.6718 0.9375,-2.7735 1.8359,-5.2735 2.8516,-8.0469 0.9375,-2.6172 1.8359,-4.9609 2.8515,-7.5391 0.9375,-2.4218 1.836,-4.6093 2.8125,-7.0312 0.9766,-2.2656 1.875,-4.2969 2.8516,-6.5625 0.9766,-2.1485 1.875,-4.0625 2.8516,-6.1719 0.9765,-1.9922 1.875,-3.7891 2.8515,-5.7812 0.9766,-1.875 1.836,-3.5547 2.8516,-5.3907 0.9765,-1.7968 1.8359,-3.3593 2.8515,-5.1172 0.9766,-1.6796 1.836,-3.164 2.8516,-4.8046 0.9766,-1.5625 1.8359,-2.9688 2.8516,-4.5313 0.9765,-1.4844 1.8359,-2.8125 2.8515,-4.2578 0.9766,-1.4063 1.836,-2.6563 2.8516,-4.0625 0.9766,-1.3281 1.8359,-2.5 2.8516,-3.7891 0.9765,-1.289 1.8359,-2.3828 2.8515,-3.6328 0.9766,-1.2109 1.836,-2.2656 2.8516,-3.4375 0.9765,-1.1328 1.8359,-2.1094 2.8515,-3.2422 0.9766,-1.0937 1.836,-2.0312 2.8516,-3.0859 0.9766,-1.0156 1.8359,-1.9141 2.8516,-2.9297 0.9375,-0.9766 1.8359,-1.8359 2.8515,-2.7734 0.9375,-0.9375 1.836,-1.7578 2.8125,-2.6953 0.9766,-0.8594 1.875,-1.6407 2.8516,-2.5 0.9766,-0.8594 1.875,-1.6016 2.8516,-2.4219 0.9765,-0.7813 1.875,-1.5235 2.8515,-2.3047 0.9766,-0.7813 1.875,-1.4453 2.8516,-2.1875 0.9765,-0.7422 1.875,-1.4063 2.8515,-2.1094 0.9766,-0.7031 1.875,-1.3281 2.8516,-1.9922 0.9766,-0.7031 1.875,-1.289 2.8516,-1.914 0.9765,-0.6641 1.8359,-1.25 2.8515,-1.836 0.9766,-0.625 1.875,-1.1718 2.8516,-1.7968 0.9766,-0.586 1.8359,-1.0938 2.8516,-1.6797 0.9765,-0.5469 1.875,-1.0547 2.8515,-1.6016 0.9766,-0.5469 1.836,-1.0547 2.8516,-1.5625 0.9765,-0.5078 1.8359,-0.9766 2.8515,-1.4844 0.9766,-0.5078 1.836,-0.9765 2.8125,-1.4453 1.0157,-0.4687 1.875,-0.8984 2.8516,-1.3672 1.0156,-0.4687 1.875,-0.8593 2.8516,-1.3281 0.9765,-0.4687 1.875,-0.8594 2.8515,-1.2891 0.9766,-0.4296 1.875,-0.8203 2.8516,-1.2109 0.9766,-0.4297 1.875,-0.7812 2.8516,-1.1719 0.9765,-0.4297 1.875,-0.7812 2.8515,-1.1718 0.9766,-0.3516 1.875,-0.7032 2.8516,-1.0938 0.9765,-0.3516 1.875,-0.7031 2.8515,-1.0547 0.9766,-0.3515 1.875,-0.664 2.8516,-1.0156 0.9766,-0.3516 1.8359,-0.6641 2.8516,-0.9766 0.9765,-0.3515 1.8359,-0.625 2.8515,-0.9765 0.9766,-0.3125 1.836,-0.586 2.8125,-0.8985 1.0157,-0.3125 1.875,-0.5859 2.8907,-0.8984 0.9765,-0.3125 1.8359,-0.5859 2.8125,-0.8594 1.0156,-0.2734 1.875,-0.5469 2.8515,-0.8203 1.0156,-0.2734 1.875,-0.5469 2.8516,-0.8203 0.9765,-0.2734 1.875,-0.5078 2.8515,-0.7813 0.9766,-0.2734 1.875,-0.5078 2.8516,-0.7421 0.9766,-0.2735 1.875,-0.5079 2.8516,-0.7422 0.9765,-0.2344 1.875,-0.4688 2.8515,-0.7032 0.9766,-0.2343 1.875,-0.4687 2.8516,-0.664 0.9766,-0.2344 1.875,-0.4688 2.8516,-0.7031 0.9765,-0.1954 1.875,-0.3907 2.8515,-0.625 0.9766,-0.2344 1.875,-0.4297 2.8516,-0.625 0.9765,-0.2344 1.875,-0.3907 2.8515,-0.625 0.9766,-0.1954 1.875,-0.3907 2.8516,-0.586 0.9766,-0.1953 1.8359,-0.3515 2.8516,-0.5469 0.9765,-0.1953 1.875,-0.3906 2.8515,-0.5859 0.9766,-0.1562 1.836,-0.3516 2.8516,-0.5078 0.9766,-0.1953 1.8359,-0.3516 2.8516,-0.5469 0.9765,-0.1562 1.8359,-0.3125 2.8125,-0.5078 1.0156,-0.1562 1.875,-0.3125 2.8515,-0.5078 1.0156,-0.1563 1.875,-0.3125 2.8516,-0.4688 0.9765,-0.1562 1.875,-0.3125 2.8515,-0.4687 0.9766,-0.1563 1.875,-0.3125 2.8516,-0.4688 0.9766,-0.1171 1.875,-0.2734 2.8516,-0.4296 0.9765,-0.1563 1.875,-0.2735 2.8515,-0.4297 0.9766,-0.1563 1.875,-0.2735 2.8516,-0.4297 0.9766,-0.1563 1.875,-0.2735 2.8516,-0.3906 0.9765,-0.1563 1.875,-0.2735 2.8515,-0.4297 0.9766,-0.1172 1.836,-0.2344 2.8516,-0.3907 0.9765,-0.1171 1.8359,-0.2343 2.8515,-0.3515 0.9766,-0.1563 1.836,-0.2735 2.8125,-0.3906 1.0157,-0.1172 1.875,-0.2344 2.8516,-0.3516 1.0156,-0.1172 1.875,-0.2344 2.8516,-0.3516 0.9765,-0.1172 1.875,-0.2343 2.8515,-0.3515 0.9766,-0.1172 1.875,-0.2344 2.8516,-0.3125 0.9766,-0.1172 1.875,-0.2344 2.8516,-0.3516 0.9765,-0.1172 1.875,-0.1953 2.8515,-0.3125 0.9766,-0.1172 1.875,-0.1953 2.8516,-0.3125 0.9765,-0.1172 1.875,-0.1953 2.8515,-0.3125 0.9766,-0.078 1.875,-0.1953 2.8516,-0.2734 0.9766,-0.1172 1.875,-0.1953 2.8516,-0.3125 0.9765,-0.078 1.875,-0.1563 2.8515,-0.2735 0.9766,-0.1172 1.836,-0.1953 2.8516,-0.2734 0.9766,-0.078 1.875,-0.1953 2.8516,-0.2734 0.9765,-0.078 1.8359,-0.1563 2.8515,-0.2735 0.9766,-0.078 1.836,-0.1562 2.8125,-0.2344 1.0156,-0.1171 1.875,-0.1953 2.8516,-0.2734 1.0156,-0.078 1.875,-0.1562 2.8515,-0.2344 0.9766,-0.078 1.875,-0.1562 2.8516,-0.2343 0.9766,-0.1172 1.875,-0.1563 2.8516,-0.2344 0.9765,-0.078 1.875,-0.1563 2.8515,-0.2344 0.9766,-0.1172 1.875,-0.1562 2.8516,-0.2344 0.9766,-0.078 1.875,-0.1562 2.8516,-0.2343 0.9765,-0.078 1.875,-0.1563 2.8515,-0.1954 0.9766,-0.1171 1.875,-0.1562 2.8516,-0.2343 0.9765,-0.078 1.875,-0.1172 2.8515,-0.1953 0.9766,-0.078 1.875,-0.1563 2.8516,-0.2344 0.9766,-0.039 1.875,-0.1172 2.8516,-0.1953 0.9765,-0.039 1.875,-0.1172 2.8515,-0.1953 0.9766,-0.039 1.836,-0.1172 2.8516,-0.1563 0.9766,-0.078 1.8359,-0.1562 2.8516,-0.1953 0.9765,-0.078 1.8359,-0.1172 2.8125,-0.1953 1.0156,-0.078 1.875,-0.1172 2.8515,-0.1953 1.0156,-0.039 1.875,-0.1172 2.8516,-0.1563 0.9765,-0.078 1.875,-0.1172 2.8515,-0.1562 0.9766,-0.078 1.875,-0.1563 2.8516,-0.1953 0.9766,-0.039 1.875,-0.1172 2.8516,-0.1563 0.9765,-0.078 1.875,-0.1172 2.8515,-0.1953 0.9766,-0.039 1.875,-0.078 2.8516,-0.1563 0.9766,-0.039 1.875,-0.078 2.8516,-0.1171 0.9765,-0.078 1.875,-0.1172 2.8515,-0.1954 0.9766,-0.039 1.836,-0.078 2.8516,-0.1171 0.9765,-0.078 1.8359,-0.1172 2.8515,-0.1563 0.9766,-0.078 1.836,-0.1172 2.8125,-0.1562 1.0157,-0.039 1.875,-0.078 2.8516,-0.1563 1.0156,-0.039 1.875,-0.078 2.8516,-0.1172 0.9765,-0.078 1.875,-0.1172 2.8515,-0.1562 0.9766,-0.039 1.875,-0.078 2.8516,-0.1172 0.9766,-0.039 1.875,-0.078 2.8516,-0.1563 0.9765,-0.039 1.875,-0.078 2.8515,-0.1172 0.9766,-0.039 1.875,-0.078 2.8516,-0.1171 0.9765,-0.039 1.875,-0.078 2.8515,-0.1172 0.9766,-0.078 1.875,-0.1172 2.8516,-0.1563 0.9766,-0.039 1.875,-0.078 2.8516,-0.1172 0.9765,-0.039 1.875,-0.078 2.8515,-0.1172 0.9766,-0.039 1.875,-0.078 2.8516,-0.1171 0.9766,-0.039 1.875,-0.078 2.8516,-0.1172 0.9765,-0.039 1.875,-0.078 2.8515,-0.1172 0.9766,-0.039 1.836,-0.078 2.8516,-0.1172 0.9765,-0.039 1.8359,-0.078 2.8515,-0.1172 0.9766,-0.039 1.836,-0.039 2.8125,-0.078 1.0157,-0.039 1.875,-0.078 2.8516,-0.1172 1.0156,-0.039 1.875,-0.078 2.8516,-0.1172 0.9765,-0.039 1.875,-0.039 2.8515,-0.078 1.0157,-0.039 1.875,-0.078 2.8516,-0.1172 0.9766,-0.039 1.875,-0.078 2.8516,-0.078 0.9765,-0.039 1.875,-0.078 2.8515,-0.1172 0.9766,-0.039 1.875,-0.078 2.8516,-0.078 0.9765,-0.039 1.875,-0.078 2.8515,-0.1172 0.9766,-0.039 1.875,-0.039 2.8516,-0.078 0.9766,-0.039 1.875,-0.078 2.8516,-0.1171 0.9765,0 1.875,-0.039 2.8515,-0.078 0.9766,-0.039 1.836,-0.039 2.8516,-0.078 0.9766,-0.039 1.8359,-0.078 2.8516,-0.078 0.9765,-0.039 1.8359,-0.078 2.8125,-0.1172 1.0156,0 1.875,-0.039 2.8515,-0.078 1.0156,0 1.875,-0.039 2.8516,-0.078 0.9765,-0.039 1.875,-0.039 2.8515,-0.078 0.9766,-0.039 1.875,-0.039 2.8516,-0.078 0.9766,-0.039 1.875,-0.039 2.8516,-0.078 0.9765,-0.039 1.875,-0.039 2.8515,-0.078 0.9766,-0.039 1.875,-0.039 2.8516,-0.078 0.9766,-0.039 1.875,-0.078 2.8516,-0.078 0.9765,-0.039 1.875,-0.039 2.8515,-0.078 0.9766,-0.039 1.836,-0.039 2.8516,-0.078 0.9765,-0.039 1.8359,-0.039 2.8515,-0.078 0.9766,0 1.836,-0.039 2.8125,-0.078 1.0157,0 1.875,-0.039 2.8907,-0.078 0.9765,0 1.8359,-0.039 2.8125,-0.039 1.0156,-0.039 1.875,-0.039 2.8515,-0.078 1.0157,-0.039 1.875,-0.039 2.8516,-0.078 0.9766,0 1.875,-0.039 2.8516,-0.039 0.9765,-0.039 1.875,-0.078 2.8515,-0.078 0.9766,-0.039 1.875,-0.039 2.8516,-0.078 0.9765,0 1.875,-0.039 2.8515,-0.078 0.9766,0 1.875,-0.039 2.8516,-0.039 0.9766,-0.039 1.875,-0.039 2.8516,-0.078 0.9765,0 1.875,-0.039 2.8515,-0.039 0.9766,-0.039 1.875,-0.039 2.8516,-0.078 0.9766,0 1.875,-0.039 2.8516,-0.039 0.9765,-0.039 1.875,-0.039 2.8515,-0.078 0.9766,0 1.836,-0.039 2.8516,-0.039 0.9765,-0.039 1.875,-0.039 2.8515,-0.078 0.9766,0 1.836,-0.039 2.8516,-0.039 0.9766,-0.039 1.8359,-0.039 2.8516,-0.078 0.9765,0 2.8125,-0.039 2.8125,-0.039"
       style="fill:#e6e6e6;fill-opacity:1;fill-rule:nonzero;stroke:#000000;stroke-width:7.97011;stroke-linecap:butt;stroke-linejoin:miter;stroke-miterlimit:10;stroke-opacity:1" />
    <path
       id="path4"
       transform="matrix(0.1,0,0,-0.1,0,842)"
       d="m 1133.8281,3809.375 h 637.7735"
       style="fill:none;stroke:#000000;stroke-width:7.97011;stroke-linecap:butt;stroke-linejoin:miter;stroke-miterlimit:10;stroke-opacity:1" />
  </g>
</svg>
