<?xml version="1.0" encoding="UTF-8" standalone="no"?>
<svg
   xmlns:dc="http://purl.org/dc/elements/1.1/"
   xmlns:cc="http://creativecommons.org/ns#"
   xmlns:rdf="http://www.w3.org/1999/02/22-rdf-syntax-ns#"
   xmlns:svg="http://www.w3.org/2000/svg"
   xmlns="http://www.w3.org/2000/svg"
   xmlns:sodipodi="http://sodipodi.sourceforge.net/DTD/sodipodi-0.dtd"
   xmlns:inkscape="http://www.inkscape.org/namespaces/inkscape"
   sodipodi:docname="continuous-distributions-pspic6.pdf"
   id="svg7"
   version="1.2"
   viewBox="0 0 56.134155 50.041988"
   height="50.041988pt"
   width="56.134155pt">
  <metadata
     id="metadata13">
    <rdf:RDF>
      <cc:Work
         rdf:about="">
        <dc:format>image/svg+xml</dc:format>
        <dc:type
           rdf:resource="http://purl.org/dc/dcmitype/StillImage" />
      </cc:Work>
    </rdf:RDF>
  </metadata>
  <defs
     id="defs11" />
  <sodipodi:namedview
     id="namedview9"
     inkscape:window-height="480"
     inkscape:window-width="640"
     inkscape:pageshadow="2"
     inkscape:pageopacity="0"
     guidetolerance="10"
     gridtolerance="10"
     objecttolerance="10"
     borderopacity="1"
     bordercolor="#666666"
     pagecolor="#ffffff" />
  <g
     transform="translate(-113.38672,-411.41902)"
     id="surface1">
    <path
       id="path2"
       transform="matrix(0.1,0,0,-0.1,0,842)"
       d="m 1180.625,3809.375 v 496.0547 c 0.8984,-9.375 3.3594,-17.5391 5.1953,-26.7969 1.7578,-8.75 3.3594,-16.6016 5.1953,-25.3516 1.7578,-8.2812 3.3594,-15.7421 5.1953,-23.9843 1.7579,-7.8516 3.3594,-14.8828 5.1954,-22.6953 1.7578,-7.4219 3.3593,-14.0625 5.1953,-21.4844 1.7578,-6.9922 3.3593,-13.2813 5.1953,-20.3125 1.7578,-6.6406 3.3594,-12.5781 5.1953,-19.1797 1.7578,-6.2891 3.3594,-11.9141 5.1953,-18.1641 1.7578,-5.9765 3.3594,-11.289 5.1953,-17.1875 1.7578,-5.625 3.3594,-10.664 5.1953,-16.289 1.7578,-5.3125 3.3594,-10.0781 5.1953,-15.3516 1.7579,-5.039 3.3594,-9.5703 5.1954,-14.5703 1.7578,-4.7656 3.3593,-9.0234 5.1953,-13.75 1.7578,-4.5312 3.3593,-8.5547 5.2343,-13.0078 1.7188,-4.2969 3.3594,-8.0859 5.1563,-12.3438 1.7578,-4.0234 3.3594,-7.6562 5.2344,-11.6406 1.7187,-3.8281 3.3593,-7.2265 5.1953,-11.0156 1.7187,-3.6328 3.3594,-6.8359 5.1562,-10.4297 1.7969,-3.4375 3.3985,-6.4844 5.2344,-9.8828 1.7578,-3.2031 3.3594,-6.0938 5.1953,-9.2969 1.7578,-3.0859 3.3594,-5.8203 5.1953,-8.8281 1.7578,-2.9297 3.3594,-5.5078 5.1953,-8.3594 1.7579,-2.7344 3.3594,-5.1953 5.1954,-7.8906 1.7578,-2.6172 3.3593,-4.9219 5.1953,-7.4609 1.7578,-2.461 3.3593,-4.6485 5.1953,-7.0704 1.7578,-2.3437 3.3594,-4.414 5.1953,-6.6796 1.7578,-2.2266 3.3594,-4.1797 5.1953,-6.3282 1.7578,-2.1093 3.3594,-3.9453 5.1953,-5.9765 1.7578,-1.9922 3.3594,-3.75 5.1953,-5.6641 1.7578,-1.875 3.3985,-3.5547 5.1953,-5.3516 1.7579,-1.7968 3.3985,-3.3593 5.1954,-5.0781 1.7578,-1.6797 3.3984,-3.164 5.1953,-4.8047 1.7578,-1.5625 3.3984,-2.9687 5.1953,-4.5312 1.7969,-1.4844 3.3984,-2.8125 5.1953,-4.2578 1.7969,-1.4453 3.3984,-2.6953 5.1953,-4.0625 1.7969,-1.3672 3.3984,-2.5391 5.1953,-3.8282 1.7969,-1.289 3.3985,-2.4218 5.1953,-3.6328 1.7969,-1.2109 3.3985,-2.2656 5.1953,-3.4375 1.7969,-1.1328 3.3985,-2.1484 5.1954,-3.2422 1.7968,-1.0937 3.3984,-2.0312 5.2343,-3.0859 1.7578,-1.0156 3.3594,-1.9141 5.1563,-2.8906 1.7969,-0.9766 3.4375,-1.836 5.2344,-2.7735 1.7578,-0.8984 3.3593,-1.7187 5.1953,-2.5781 1.7578,-0.8594 3.3593,-1.6406 5.1953,-2.4609 1.7578,-0.8203 3.3984,-1.5235 5.1953,-2.3047 1.7969,-0.7813 3.3984,-1.4844 5.1953,-2.2266 1.7578,-0.7422 3.3984,-1.3672 5.1953,-2.0703 1.7578,-0.7031 3.3985,-1.3281 5.1953,-1.9531 1.7969,-0.6641 3.3985,-1.25 5.1953,-1.875 1.7579,-0.625 3.3985,-1.1719 5.1954,-1.7578 1.7968,-0.586 3.3984,-1.1328 5.1953,-1.6797 1.7968,-0.5469 3.3984,-1.0547 5.1953,-1.5625 1.7969,-0.5469 3.3984,-1.0156 5.1953,-1.4844 1.7969,-0.5078 3.3984,-0.9765 5.1953,-1.4453 1.7969,-0.4687 3.3984,-0.8594 5.1953,-1.3281 1.7969,-0.4297 3.3985,-0.8203 5.1953,-1.25 1.7969,-0.4297 3.3985,-0.7813 5.1953,-1.211 1.7969,-0.3906 3.3985,-0.7421 5.1954,-1.1328 1.7968,-0.3515 3.3984,-0.7031 5.1953,-1.0547 1.7968,-0.3515 3.3984,-0.664 5.1953,-1.0156 1.7969,-0.3125 3.4375,-0.625 5.1953,-0.9375 1.7969,-0.3515 3.3984,-0.625 5.1953,-0.9375 1.7969,-0.2734 3.3984,-0.5469 5.1953,-0.8203 1.7969,-0.3125 3.4375,-0.5469 5.1953,-0.8203 1.7969,-0.2734 3.3985,-0.5078 5.2344,-0.7813 1.7578,-0.2343 3.3984,-0.4687 5.1563,-0.7031 1.7968,-0.2344 3.4375,-0.4687 5.2343,-0.7031 1.7578,-0.2344 3.3985,-0.4297 5.1953,-0.625 1.7579,-0.2344 3.3985,-0.4297 5.1954,-0.625 1.7968,-0.1953 3.3984,-0.3906 5.1953,-0.5859 1.7968,-0.1954 3.3984,-0.3516 5.1953,-0.5469 1.7969,-0.1953 3.3984,-0.3516 5.1953,-0.5078 1.7969,-0.1953 3.3984,-0.3516 5.1953,-0.5078 1.7969,-0.1563 3.3984,-0.3125 5.1953,-0.4688 1.7969,-0.1562 3.3985,-0.2734 5.1953,-0.4297 1.7969,-0.1562 3.3985,-0.2734 5.1953,-0.4297 1.7969,-0.1172 3.3985,-0.2343 5.1954,-0.3906 1.7968,-0.1172 3.3984,-0.2344 5.1953,-0.3516 1.7968,-0.1171 3.3984,-0.2343 5.1953,-0.3515 1.7969,-0.1172 3.3984,-0.2344 5.1953,-0.3516 1.7969,-0.1172 3.3984,-0.1953 5.1953,-0.3125 1.7969,-0.078 3.3984,-0.1953 5.1953,-0.2734 1.7969,-0.1172 3.3985,-0.1953 5.1953,-0.3125 1.7969,-0.078 3.3985,-0.1563 5.1953,-0.2344 1.7969,-0.1172 3.3985,-0.1953 5.1954,-0.2734 1.7968,-0.078 3.3984,-0.1563 5.1953,-0.2344 1.7968,-0.078 3.3984,-0.1563 5.1953,-0.2344 1.7969,-0.078 3.3984,-0.1172 5.2344,-0.1953 1.7578,-0.078 3.3984,-0.1562 5.1562,-0.2344 1.7969,-0.039 3.4375,-0.1172 5.2344,-0.1562 1.7578,-0.078 3.3984,-0.1172 5.1953,-0.1953 1.7578,-0.078 3.3984,-0.1172 5.1562,-0.1563 1.836,-0.078 3.4375,-0.1172 5.2344,-0.1562 1.7578,-0.078 3.3985,-0.1172 5.1953,-0.1563 1.7969,-0.078 3.3985,-0.1172 5.1953,-0.1562 1.7969,-0.039 3.3985,-0.078 5.1954,-0.1172 1.7968,-0.078 3.3984,-0.1172 5.1953,-0.1563 1.7968,-0.039 3.3984,-0.078 5.1953,-0.1172 1.7969,-0.039 5.1953,-0.1171 5.1953,-0.1171"
       style="fill:#e6e6e6;fill-opacity:1;fill-rule:nonzero;stroke:#000000;stroke-width:7.97011;stroke-linecap:butt;stroke-linejoin:miter;stroke-miterlimit:10;stroke-opacity:1" />
    <path
       id="path4"
       transform="matrix(0.1,0,0,-0.1,0,842)"
       d="m 1133.8672,3809.375 h 561.25"
       style="fill:none;stroke:#000000;stroke-width:7.97011;stroke-linecap:butt;stroke-linejoin:miter;stroke-miterlimit:10;stroke-opacity:1" />
  </g>
</svg>
