<?xml version="1.0" encoding="UTF-8" standalone="no"?>
<svg
   xmlns:dc="http://purl.org/dc/elements/1.1/"
   xmlns:cc="http://creativecommons.org/ns#"
   xmlns:rdf="http://www.w3.org/1999/02/22-rdf-syntax-ns#"
   xmlns:svg="http://www.w3.org/2000/svg"
   xmlns="http://www.w3.org/2000/svg"
   xmlns:sodipodi="http://sodipodi.sourceforge.net/DTD/sodipodi-0.dtd"
   xmlns:inkscape="http://www.inkscape.org/namespaces/inkscape"
   sodipodi:docname="continuous-distributions-pspic11.pdf"
   id="svg7"
   version="1.2"
   viewBox="0 0 56.708004 50.384632"
   height="50.384632pt"
   width="56.708004pt">
  <metadata
     id="metadata13">
    <rdf:RDF>
      <cc:Work
         rdf:about="">
        <dc:format>image/svg+xml</dc:format>
        <dc:type
           rdf:resource="http://purl.org/dc/dcmitype/StillImage" />
      </cc:Work>
    </rdf:RDF>
  </metadata>
  <defs
     id="defs11" />
  <sodipodi:namedview
     id="namedview9"
     inkscape:window-height="480"
     inkscape:window-width="640"
     inkscape:pageshadow="2"
     inkscape:pageopacity="0"
     guidetolerance="10"
     gridtolerance="10"
     objecttolerance="10"
     borderopacity="1"
     bordercolor="#666666"
     pagecolor="#ffffff" />
  <g
     transform="translate(-113.37842,-411.07637)"
     id="surface1">
    <path
       id="path2"
       transform="matrix(0.1,0,0,-0.1,0,842)"
       d="m 1133.8672,3810.0391 c 0,0 3.75,0.078 5.7031,0.1172 1.9922,0.039 3.75,0.078 5.7422,0.1562 1.9922,0.039 3.75,0.078 5.7422,0.1563 1.9531,0.039 3.75,0.1171 5.7031,0.1953 1.9922,0.039 3.75,0.1172 5.7422,0.1953 1.9531,0.1172 3.75,0.1953 5.7031,0.2734 1.9922,0.078 3.75,0.1953 5.7422,0.3125 1.9922,0.1172 3.75,0.1953 5.7422,0.3516 1.9531,0.1172 3.75,0.2734 5.7031,0.4297 1.9922,0.1562 3.75,0.3125 5.7422,0.5078 1.9531,0.1562 3.75,0.3515 5.7031,0.5469 1.9922,0.2343 3.75,0.4296 5.7422,0.7031 1.9532,0.2734 3.75,0.5078 5.7032,0.8203 1.9921,0.2734 3.789,0.5859 5.7421,0.9375 1.9922,0.3516 3.75,0.7031 5.7422,1.0937 1.9922,0.4297 3.75,0.8204 5.7032,1.2891 1.9921,0.5078 3.789,0.9766 5.7421,1.5234 1.9922,0.586 3.75,1.1329 5.7032,1.7969 2.0312,0.6641 3.789,1.2891 5.7422,2.0703 1.9921,0.7813 3.789,1.5625 5.7421,2.461 1.9922,0.8984 3.7891,1.7968 5.7032,2.8515 2.0312,1.0547 3.789,2.1094 5.7422,3.3203 2.0312,1.2891 3.789,2.461 5.7421,3.8672 2.0313,1.5235 3.7891,2.8907 5.7032,4.5313 2.0703,1.7578 3.8281,3.3984 5.7422,5.2734 2.0312,2.0313 3.8281,3.9453 5.7031,6.0938 2.0703,2.3828 3.8281,4.5703 5.7422,7.1093 2.0703,2.7344 3.8281,5.2735 5.7422,8.1641 2.0703,3.2031 3.8281,6.1328 5.7031,9.4531 2.0703,3.6719 3.8672,7.0313 5.7422,10.8203 2.0703,4.2188 3.8281,8.0469 5.7031,12.3829 2.1094,4.8046 3.8672,9.1796 5.7422,14.1015 2.1094,5.4688 3.8281,10.4297 5.7031,15.9766 2.1094,6.1719 3.8672,11.7187 5.7422,17.9687 2.0703,6.875 3.8281,13.125 5.7422,20.0782 2.0703,7.6171 3.8281,14.5312 5.7031,22.2265 2.0703,8.3594 3.8281,15.8985 5.7422,24.336 2.0312,9.0625 3.7891,17.2656 5.7031,26.3671 2.0703,9.7266 3.8281,18.4375 5.7422,28.1641 2.0313,10.2344 3.7891,19.4141 5.7422,29.6484 1.9922,10.5469 3.75,20 5.7031,30.5469 1.9922,10.625 3.75,20.1953 5.7422,30.8203 1.9531,10.4297 3.7109,19.8047 5.7422,30.2344 1.9141,9.9219 3.6328,18.8281 5.7031,28.75 1.875,9.0234 3.5938,17.1484 5.7422,26.1719 1.8359,7.8125 3.5156,14.8437 5.7031,22.539 1.7969,6.25 3.3985,11.9141 5.7422,17.9688 1.7188,4.414 3.125,8.5156 5.7031,12.5 1.6407,2.4609 3.0469,5.1953 5.7422,6.4062 1.7969,0.7813 3.9453,0.7813 5.7422,0 2.6563,-1.2109 4.1016,-3.9453 5.7031,-6.4453 2.6172,-3.9453 4.0235,-8.0469 5.7422,-12.4609 2.3438,-6.0547 3.9453,-11.7188 5.7032,-17.9688 2.2265,-7.6953 3.9062,-14.7265 5.7421,-22.539 2.1094,-9.0235 3.8282,-17.1485 5.7422,-26.1719 2.0703,-9.9219 3.7891,-18.8281 5.7032,-28.75 2.0312,-10.4297 3.789,-19.8047 5.7421,-30.2344 1.9922,-10.625 3.75,-20.1953 5.7422,-30.8203 1.9532,-10.5469 3.711,-20 5.7032,-30.5469 1.9531,-10.2343 3.7109,-19.414 5.7421,-29.6484 1.9141,-9.7266 3.6719,-18.4375 5.7032,-28.1641 1.914,-9.1015 3.6718,-17.3046 5.7422,-26.3671 1.875,-8.4375 3.6718,-15.9766 5.7421,-24.375 1.875,-7.6954 3.6329,-14.5704 5.7032,-22.1875 1.875,-6.9532 3.6328,-13.2032 5.7422,-20.0782 1.875,-6.25 3.6328,-11.7968 5.7031,-17.9687 1.875,-5.5469 3.6719,-10.5078 5.7422,-15.9766 1.875,-4.9219 3.6328,-9.2969 5.7031,-14.1015 1.9141,-4.336 3.6719,-8.1641 5.7422,-12.3829 1.875,-3.789 3.6328,-7.1484 5.7422,-10.8203 1.875,-3.3203 3.6328,-6.25 5.7031,-9.4531 1.875,-2.8906 3.6719,-5.4297 5.7422,-8.1641 1.875,-2.539 3.6719,-4.7265 5.7031,-7.1093 1.9141,-2.1485 3.7109,-4.0625 5.7422,-6.0938 1.9141,-1.875 3.6719,-3.5156 5.7422,-5.2734 1.914,-1.6406 3.6719,-3.0078 5.7031,-4.5313 1.9531,-1.4062 3.7109,-2.5781 5.7422,-3.8672 1.9141,-1.2109 3.7109,-2.2656 5.7422,-3.3203 1.914,-1.0547 3.7109,-1.9531 5.7031,-2.8515 1.9531,-0.8985 3.7109,-1.6797 5.7422,-2.461 1.9531,-0.7812 3.7109,-1.4062 5.7031,-2.0703 1.9922,-0.664 3.75,-1.2109 5.7422,-1.7969 1.9531,-0.5468 3.75,-1.0156 5.7031,-1.5234 1.9922,-0.4687 3.75,-0.8594 5.7422,-1.2891 1.9922,-0.3906 3.75,-0.7421 5.7422,-1.0937 1.9531,-0.3516 3.75,-0.6641 5.7031,-0.9375 1.9922,-0.3125 3.75,-0.5469 5.7422,-0.8203 1.9531,-0.2735 3.75,-0.4688 5.7031,-0.7031 1.9922,-0.1954 3.75,-0.3907 5.7422,-0.5469 1.9922,-0.1953 3.75,-0.3516 5.7422,-0.5078 1.9531,-0.1563 3.75,-0.3125 5.7031,-0.4297 1.9922,-0.1563 3.75,-0.2344 5.7422,-0.3516 1.9532,-0.1172 3.75,-0.2344 5.7422,-0.3125 1.9531,-0.078 3.75,-0.1562 5.7031,-0.2734 1.9922,-0.078 3.75,-0.1563 5.7422,-0.1953 1.9532,-0.078 3.75,-0.1563 5.7032,-0.1953 1.9921,-0.078 3.75,-0.1172 5.7421,-0.1563 1.9922,-0.078 3.75,-0.1172 5.7422,-0.1562 1.9532,-0.039 5.7032,-0.1172 5.7032,-0.1172"
       style="fill:#e6e6e6;fill-opacity:1;fill-rule:nonzero;stroke:#000000;stroke-width:7.97011;stroke-linecap:butt;stroke-linejoin:miter;stroke-miterlimit:10;stroke-opacity:1" />
    <path
       id="path4"
       transform="matrix(0.1,0,0,-0.1,0,842)"
       d="m 1133.8672,3809.375 h 566.9141"
       style="fill:none;stroke:#000000;stroke-width:7.97011;stroke-linecap:butt;stroke-linejoin:miter;stroke-miterlimit:10;stroke-opacity:1" />
  </g>
</svg>
