<?xml version="1.0" encoding="UTF-8" standalone="no"?>
<svg
   xmlns:dc="http://purl.org/dc/elements/1.1/"
   xmlns:cc="http://creativecommons.org/ns#"
   xmlns:rdf="http://www.w3.org/1999/02/22-rdf-syntax-ns#"
   xmlns:svg="http://www.w3.org/2000/svg"
   xmlns="http://www.w3.org/2000/svg"
   xmlns:sodipodi="http://sodipodi.sourceforge.net/DTD/sodipodi-0.dtd"
   xmlns:inkscape="http://www.inkscape.org/namespaces/inkscape"
   sodipodi:docname="continuous-distributions-pspic2.pdf"
   id="svg7"
   version="1.2"
   viewBox="0 0 56.125 43.869804"
   height="43.869804pt"
   width="56.125pt">
  <metadata
     id="metadata13">
    <rdf:RDF>
      <cc:Work
         rdf:about="">
        <dc:format>image/svg+xml</dc:format>
        <dc:type
           rdf:resource="http://purl.org/dc/dcmitype/StillImage" />
      </cc:Work>
    </rdf:RDF>
  </metadata>
  <defs
     id="defs11" />
  <sodipodi:namedview
     id="namedview9"
     inkscape:window-height="480"
     inkscape:window-width="640"
     inkscape:pageshadow="2"
     inkscape:pageopacity="0"
     guidetolerance="10"
     gridtolerance="10"
     objecttolerance="10"
     borderopacity="1"
     bordercolor="#666666"
     pagecolor="#ffffff" />
  <g
     transform="translate(-113.38281,-417.5912)"
     id="surface1">
    <path
       id="path2"
       transform="matrix(0.1,0,0,-0.1,0,842)"
       d="m 1227.3438,3809.375 c 0,0 1.875,2.8125 2.8515,4.2969 0.9766,1.4844 1.836,2.8125 2.8516,4.2969 0.9765,1.4843 1.8359,2.8125 2.8125,4.2968 0.9765,1.4844 1.875,2.8125 2.8515,4.2969 0.9766,1.4844 1.836,2.8125 2.8125,4.2969 1.0157,1.4844 1.875,2.8125 2.8516,4.2969 0.9766,1.4843 1.8359,2.8125 2.8516,4.2968 0.9375,1.4844 1.8359,2.8125 2.8125,4.2969 0.9765,1.4844 1.875,2.8125 2.8515,4.2969 0.9766,1.4844 1.836,2.8125 2.8125,4.2969 0.9766,1.4843 1.875,2.8125 2.8516,4.2968 0.9766,1.4844 1.8359,2.8125 2.8125,4.2969 0.9766,1.4453 1.875,2.7734 2.8516,4.2578 0.9765,1.5235 1.8359,2.8516 2.8125,4.2969 1.0156,1.4844 1.875,2.8125 2.8515,4.2969 0.9766,1.4843 1.875,2.8125 2.8516,4.2968 0.9765,1.4844 1.8359,2.8125 2.8125,4.2969 0.9765,1.4844 1.875,2.8125 2.8515,4.2969 0.9766,1.4844 1.836,2.8125 2.8125,4.2969 0.9766,1.4843 1.875,2.8125 2.8516,4.2968 0.9766,1.4844 1.8359,2.8125 2.8125,4.2969 0.9766,1.4844 1.875,2.8125 2.8516,4.2969 0.9765,1.4844 1.8359,2.8125 2.8515,4.2969 0.9766,1.4843 1.836,2.8125 2.8125,4.2968 0.9766,1.4844 1.875,2.8125 2.8516,4.2969 0.9766,1.4844 1.8359,2.8125 2.8125,4.2969 0.9766,1.4844 1.875,2.8125 2.8516,4.2969 0.9765,1.4843 1.8359,2.8125 2.8125,4.2968 0.9765,1.4844 1.875,2.8125 2.8515,4.2969 0.9766,1.4453 1.875,2.8125 2.8125,4.2969 1.0156,1.4844 1.875,2.8125 2.8516,4.2969 0.9765,1.4453 1.875,2.8125 2.8515,4.2968 0.9766,1.4454 1.836,2.8125 2.8125,4.2579 0.9766,1.4843 1.875,2.8515 2.8516,4.2968 0.9766,1.4844 1.8359,2.8125 2.8125,4.2969 0.9766,1.4844 1.875,2.8516 2.8516,4.2969 0.9765,1.4844 1.875,2.8125 2.8515,4.2969 0.9375,1.4843 1.836,2.8125 2.8125,4.2968 0.9766,1.4844 1.875,2.8125 2.8125,4.2969 1.0157,1.4844 1.875,2.8125 2.8516,4.2969 0.9766,1.4844 1.875,2.8125 2.8516,4.2969 0.9765,1.4843 1.8359,2.8125 2.8125,4.2968 0.9765,1.4844 1.875,2.8125 2.8515,4.2969 0.9766,1.4844 1.836,2.8125 2.8516,4.2969 0.9765,1.4844 1.8359,2.8125 2.8125,4.2969 0.9765,1.4843 1.875,2.8125 2.8515,4.2968 0.9375,1.4844 1.836,2.8125 2.8125,4.2969 0.9766,1.4844 1.875,2.8125 2.8516,4.2969 0.9766,1.4844 1.8359,2.8125 2.8125,4.2969 0.9766,1.4843 1.875,2.8125 2.8516,4.2968 0.9765,1.4844 1.8359,2.8125 2.8125,4.2969 0.9765,1.4453 1.875,2.7734 2.8515,4.2578 0.9766,1.5235 1.836,2.8516 2.8516,4.2969 0.9766,1.4844 1.8359,2.8125 2.8125,4.2969 0.9766,1.4843 1.875,2.8125 2.8516,4.2968 0.9765,1.4844 1.8359,2.8125 2.8125,4.2969 0.9765,1.4844 1.875,2.8125 2.8515,4.2969 0.9766,1.4844 1.836,2.8125 2.8125,4.2969 0.9766,1.4843 1.875,2.8125 2.8516,4.2968 0.9765,1.4844 1.8359,2.8125 2.8125,4.2969 1.0156,1.4844 1.875,2.8125 2.8515,4.2969 0.9766,1.4844 1.875,2.8125 2.8516,4.2969 0.9766,1.4843 1.8359,2.8125 2.8125,4.2968 0.9766,1.4844 1.875,2.8125 2.8516,4.2969 0.9765,1.4844 1.8359,2.8125 2.8125,4.2969 0.9765,1.4844 1.875,2.8125 2.8515,4.2969 0.9766,1.4843 1.875,2.8125 2.8516,4.2968 0.9766,1.4844 1.8359,2.8125 2.8125,4.2969 0.9766,1.4844 1.875,2.8125 2.8516,4.2969 0.9765,1.4844 1.8359,2.8125 2.8125,4.2969 0.9765,1.4843 1.875,2.8125 2.8515,4.2968 0.9766,1.4453 1.836,2.8125 2.8125,4.2578 0.9766,1.5235 1.875,2.8516 2.8516,4.2969 0.9765,1.4844 1.8359,2.8125 2.8515,4.2969 0.9766,1.4844 1.836,2.8516 2.8125,4.2969 0.9766,1.4843 1.875,2.8125 2.8516,4.2968 0.9766,1.4844 1.8359,2.8125 2.8125,4.2969 0.9766,1.4844 1.875,2.8125 2.8516,4.2969 0.9765,1.4844 1.8359,2.8125 2.8125,4.2969 0.9765,1.4843 1.875,2.8125 2.8515,4.2968 0.9766,1.4844 1.836,2.8125 2.8125,4.2969 1.0157,1.4844 1.875,2.8125 2.8516,4.2969 0.9766,1.4844 1.8359,2.8125 2.8516,4.2969 0.9765,1.4843 1.8359,2.8125 2.8125,4.2968 0.9765,1.4844 1.875,2.8125 2.8515,4.2969 0.9766,1.4844 1.836,2.8125 2.8125,4.2969 0.9766,1.4844 1.875,2.8125 2.8516,4.2969 0.9765,1.4843 1.875,2.8125 2.8125,4.2968 0.9765,1.4844 1.875,2.8125 2.8515,4.2969 0.9766,1.4844 1.836,2.8125 2.8125,4.2969 1.0157,1.4453 1.875,2.7734 2.8516,4.2578 0.9766,1.5234 1.875,2.8516 2.8516,4.2969 0.9765,1.4844 1.8359,2.8125 2.8125,4.2969 0.9765,1.4843 1.875,2.8125 2.8515,4.2968 0.9766,1.4844 1.836,2.8125 2.8125,4.2969 0.9766,1.4844 1.875,2.8125 2.8516,4.2969 0.9766,1.4844 1.875,2.8125 2.8125,4.2969 0.9766,1.4843 1.875,2.8125 2.8516,4.2968 0.9765,1.4844 2.8515,4.2969 2.8515,4.2969 0.3906,-1.4453 0.586,-2.8125 0.9375,-4.2969 0.3125,-1.4843 0.625,-2.8125 0.9375,-4.2968 0.3125,-1.4844 0.625,-2.8125 0.9375,-4.2969 0.3516,-1.4844 0.625,-2.8125 0.9375,-4.2969 0.3516,-1.4844 0.625,-2.7734 0.9766,-4.2969 0.3125,-1.4843 0.625,-2.8125 0.9375,-4.2578 0.3125,-1.5234 0.625,-2.8125 0.9375,-4.3359 0.3125,-1.4453 0.625,-2.7735 0.9375,-4.2578 0.3515,-1.5235 0.625,-2.8125 0.9375,-4.2969 0.3515,-1.4844 0.625,-2.8125 0.9765,-4.2969 0.3125,-1.4844 0.586,-2.8125 0.9375,-4.2969 0.3125,-1.4843 0.625,-2.8125 0.9375,-4.2968 0.3125,-1.4844 0.625,-2.8125 0.9375,-4.2969 0.3516,-1.4844 0.625,-2.8125 0.9375,-4.2969 0.3516,-1.4844 0.625,-2.8125 0.9766,-4.2969 0.3125,-1.4843 0.5859,-2.8125 0.9375,-4.2968 0.3125,-1.4844 0.5859,-2.8125 0.9375,-4.2969 0.3125,-1.4844 0.625,-2.8125 0.9375,-4.2969 0.3125,-1.4844 0.625,-2.8125 0.9375,-4.2969 0.3516,-1.4843 0.625,-2.8125 0.9375,-4.2968 0.3516,-1.4844 0.625,-2.8125 0.9766,-4.2969 0.3125,-1.4844 0.625,-2.8125 0.9375,-4.2969 0.3125,-1.4844 0.625,-2.8125 0.9375,-4.2969 0.3125,-1.4843 0.625,-2.8125 0.9375,-4.2968 0.3515,-1.4453 0.625,-2.8125 0.9375,-4.2578 0.3515,-1.5235 0.625,-2.8516 0.9765,-4.336 0.3125,-1.4453 0.586,-2.7734 0.9375,-4.2578 0.3125,-1.4844 0.625,-2.8516 0.9375,-4.2969 0.3125,-1.4843 0.625,-2.8125 0.9375,-4.2968 0.3125,-1.4844 0.625,-2.8125 0.9375,-4.2969 0.3516,-1.4844 0.625,-2.8125 0.9766,-4.2969 0.3125,-1.4844 0.5859,-2.8125 0.9375,-4.2969 0.3125,-1.4843 0.625,-2.8125 0.9375,-4.2968 0.3125,-1.4844 0.625,-2.8125 0.9375,-4.2969 0.3516,-1.4844 0.625,-2.8125 0.9375,-4.2969 0.3516,-1.4844 0.625,-2.8125 0.9375,-4.2969 0.3516,-1.4843 0.625,-2.8125 0.9766,-4.2968 0.3125,-1.4844 0.5859,-2.8125 0.9375,-4.2969 0.3125,-1.4844 0.625,-2.8125 0.9375,-4.2969 0.3125,-1.4844 0.625,-2.8125 0.9375,-4.2969 0.3515,-1.4843 0.625,-2.8125 0.9375,-4.2968 0.3515,-1.4844 0.625,-2.8125 0.9765,-4.2969 0.3125,-1.4844 0.586,-2.8125 0.9375,-4.2969 0.3125,-1.4453 0.625,-2.7734 0.9375,-4.2969 0.3125,-1.4843 0.625,-2.8125 0.9375,-4.2578 0.3516,-1.4843 0.625,-2.8125 0.9375,-4.2968 0.3516,-1.4844 0.625,-2.8125 0.9375,-4.2969 0.3516,-1.4844 0.625,-2.8125 0.9766,-4.2969 0.3125,-1.4844 0.625,-2.8125 0.9375,-4.2969 0.3125,-1.4843 0.625,-2.8125 0.9375,-4.2968 0.3515,-1.4844 0.625,-2.8125 0.9375,-4.2969 0.3515,-1.4844 0.625,-2.8125 0.9765,-4.2969 0.3125,-1.4844 0.586,-2.8125 0.9375,-4.2969 0.3125,-1.4843 0.586,-2.8125 0.9375,-4.2968 0.3125,-1.4844 0.625,-2.8125 0.9375,-4.2969 0.3125,-1.4844 0.625,-2.8125 0.9375,-4.2969 0.3125,-1.4844 0.625,-2.8125 0.9375,-4.2969 0.3516,-1.4843 0.625,-2.8125 0.9766,-4.2968 0.3125,-1.4844 0.625,-2.8125 0.9375,-4.2969 0.3125,-1.4844 0.625,-2.8125 0.9375,-4.2969 0.3125,-1.4844 0.625,-2.8125 0.9375,-4.2969 0.3516,-1.4843 0.625,-2.8125 0.9375,-4.2968 0.3516,-1.4844 0.625,-2.8125 0.9766,-4.2969 0.3125,-1.4453 0.5859,-2.8125 0.9375,-4.2578 0.3125,-1.4844 0.625,-2.8516 0.9375,-4.336 0.3125,-1.4453 0.625,-2.7734 0.9375,-4.2578 0.3125,-1.4844 0.625,-2.8515 0.9375,-4.2969 0.3515,-1.4843 0.625,-2.8125 0.9765,-4.2968 0.3125,-1.4844 0.586,-2.8125 0.9375,-4.2969 0.3125,-1.4844 0.625,-2.8125 0.9375,-4.2969 0.3125,-1.4844 0.625,-2.8125 0.9375,-4.2969 0.3125,-1.4843 0.625,-2.8125 0.9375,-4.2968 0.3516,-1.4844 0.625,-2.8125 0.9375,-4.2969 0.3516,-1.4844 0.625,-2.8125 0.9375,-4.2969 0.3516,-1.4844 0.6641,-2.8125 0.9766,-4.2969 0.3125,-1.4843 0.625,-2.8125 0.9375,-4.2968 0.3125,-1.4844 0.625,-2.8125 0.9375,-4.2969 0.3125,-1.4844 0.625,-2.8125 0.9766,-4.2969 0.3125,-1.4844 0.5859,-2.8125 0.9375,-4.2969 0.3125,-1.4843 0.5859,-2.8125 0.9375,-4.2968 0.3125,-1.4844 0.625,-2.8125 0.9375,-4.2578 0.3125,-1.5235 0.625,-2.8516 0.9375,-4.336 0.3125,-1.4453 0.625,-2.7734 0.9375,-4.2578 0.3515,-1.5234 0.625,-2.8516 0.9375,-4.2969 0.3515,-1.4843 0.625,-2.8125 0.9765,-4.2968 0.3125,-1.4844 0.625,-2.8125 0.9375,-4.2969 0.3125,-1.4844 0.625,-2.8125 0.9375,-4.2969 0.3125,-1.4844 0.625,-2.8125 0.9375,-4.2969 0.3516,-1.4843 0.625,-2.8125 0.9766,-4.2968 0.3125,-1.4844 0.5859,-2.8125 0.9375,-4.2969 0.3125,-1.4844 0.5859,-2.8125 0.9375,-4.2969 0.3125,-1.4844 0.625,-2.8125 0.9375,-4.2969 0.3125,-1.4843 0.625,-2.8125 0.9375,-4.2968 0.3515,-1.4844 0.625,-2.8125 0.9375,-4.2969 0.3515,-1.4844 0.625,-2.8125 0.9765,-4.2969 0.3125,-1.4844 0.625,-2.8125 0.9375,-4.2969 0.3125,-1.4843 0.625,-2.8125 0.9375,-4.2968 0.3125,-1.4844 0.625,-2.8125 0.9375,-4.2969 0.3516,-1.4844 0.9375,-4.2969 0.9375,-4.2969"
       style="fill:#e6e6e6;fill-opacity:1;fill-rule:nonzero;stroke:#000000;stroke-width:7.97011;stroke-linecap:butt;stroke-linejoin:miter;stroke-miterlimit:10;stroke-opacity:1" />
    <path
       id="path4"
       transform="matrix(0.1,0,0,-0.1,0,842)"
       d="m 1133.8281,3809.375 h 561.25"
       style="fill:none;stroke:#000000;stroke-width:7.97011;stroke-linecap:butt;stroke-linejoin:miter;stroke-miterlimit:10;stroke-opacity:1" />
  </g>
</svg>
