<?xml version="1.0" encoding="UTF-8" standalone="no"?>
<svg
   xmlns:dc="http://purl.org/dc/elements/1.1/"
   xmlns:cc="http://creativecommons.org/ns#"
   xmlns:rdf="http://www.w3.org/1999/02/22-rdf-syntax-ns#"
   xmlns:svg="http://www.w3.org/2000/svg"
   xmlns="http://www.w3.org/2000/svg"
   xmlns:sodipodi="http://sodipodi.sourceforge.net/DTD/sodipodi-0.dtd"
   xmlns:inkscape="http://www.inkscape.org/namespaces/inkscape"
   sodipodi:docname="continuous-distributions-pspic7.pdf"
   id="svg7"
   version="1.2"
   viewBox="0 0 56.563816 51.918102"
   height="51.918102pt"
   width="56.563816pt">
  <metadata
     id="metadata13">
    <rdf:RDF>
      <cc:Work
         rdf:about="">
        <dc:format>image/svg+xml</dc:format>
        <dc:type
           rdf:resource="http://purl.org/dc/dcmitype/StillImage" />
      </cc:Work>
    </rdf:RDF>
  </metadata>
  <defs
     id="defs11" />
  <sodipodi:namedview
     id="namedview9"
     inkscape:window-height="480"
     inkscape:window-width="640"
     inkscape:pageshadow="2"
     inkscape:pageopacity="0"
     guidetolerance="10"
     gridtolerance="10"
     objecttolerance="10"
     borderopacity="1"
     bordercolor="#666666"
     pagecolor="#ffffff" />
  <g
     transform="translate(-113.38281,-409.5429)"
     id="surface1">
    <path
       id="path2"
       transform="matrix(0.1,0,0,-0.1,0,842)"
       d="m 1133.8281,3809.375 c 0,0 1.836,0 2.8125,0 1.0157,0 1.875,0 2.8516,0.039 0.9766,0.039 1.875,0.078 2.8516,0.1953 0.9765,0.1172 1.875,0.2344 2.8515,0.4297 0.9766,0.2343 1.875,0.4687 2.8516,0.8593 1.0156,0.3907 1.875,0.8204 2.8125,1.3672 1.0547,0.625 1.914,1.2891 2.8515,2.1094 1.0547,0.8984 1.9141,1.8359 2.8516,2.8906 1.0547,1.25 1.9141,2.461 2.8125,3.8282 1.0938,1.6015 1.9531,3.125 2.8516,4.8437 1.0547,2.0313 1.914,3.8672 2.8515,5.9375 1.0547,2.3828 1.9141,4.5703 2.8516,7.0313 1.0547,2.8125 1.9141,5.3515 2.8125,8.2031 1.0547,3.2031 1.9141,6.0937 2.8516,9.3359 1.0546,3.5938 1.914,6.836 2.8515,10.4688 1.0156,3.9453 1.9141,7.539 2.8516,11.5234 1.0156,4.3359 1.875,8.2031 2.8515,12.5781 0.9766,4.6485 1.875,8.8282 2.8125,13.4766 1.0157,4.9609 1.9141,9.4531 2.8516,14.4141 1.0156,5.2343 1.875,9.9218 2.8516,15.1953 0.9765,5.4687 1.875,10.3906 2.8515,15.8593 0.9766,5.6641 1.836,10.7813 2.8125,16.4454 1.0157,5.8593 1.875,11.0937 2.8516,16.9531 0.9766,5.9765 1.875,11.3281 2.8516,17.3047 0.9765,6.0547 1.875,11.5234 2.8125,17.5781 1.0156,6.1328 1.875,11.6016 2.8515,17.7344 0.9766,6.1328 1.875,11.6406 2.8516,17.7734 0.9765,6.1328 1.8359,11.6406 2.8515,17.7734 0.9766,6.0547 1.836,11.5235 2.8125,17.5782 0.9766,6.0156 1.875,11.3671 2.8516,17.3828 0.9766,5.8593 1.875,11.1718 2.8516,17.0312 0.9765,5.7422 1.8359,10.8985 2.8515,16.6406 0.9375,5.586 1.836,10.586 2.8125,16.1719 0.9766,5.3906 1.875,10.2344 2.8516,15.625 0.9766,5.1953 1.8359,9.8438 2.8516,15 0.9765,4.961 1.8359,9.4141 2.8515,14.336 0.9375,4.7265 1.836,8.9453 2.8125,13.6718 0.9766,4.4532 1.836,8.4375 2.8516,12.8907 0.9375,4.1796 1.8359,7.9296 2.8515,12.1093 0.9375,3.9063 1.836,7.3828 2.8516,11.2891 0.9375,3.5937 1.7969,6.875 2.8125,10.4687 0.9766,3.3204 1.8359,6.2891 2.8516,9.6094 0.9375,3.0078 1.7968,5.7031 2.8515,8.711 0.9375,2.7343 1.7969,5.1953 2.8516,7.8906 0.9375,2.4219 1.7969,4.6094 2.8516,6.9922 0.8984,2.1093 1.7578,4.0234 2.8125,6.1328 0.9375,1.8359 1.7968,3.4765 2.8515,5.2344 0.8985,1.5625 1.7578,2.9687 2.8516,4.414 0.8984,1.2891 1.7578,2.4219 2.8125,3.5938 0.9375,1.0156 1.7969,1.875 2.8515,2.7343 0.9375,0.7422 1.7969,1.4063 2.8516,1.9532 0.9375,0.5078 1.8359,0.8984 2.8516,1.1718 0.9375,0.2735 1.8359,0.3907 2.8125,0.4297 0.9765,0 1.914,-0.1172 2.8515,-0.3125 1.0157,-0.2343 1.9141,-0.5859 2.8516,-1.0156 1.0156,-0.4687 1.9141,-1.0156 2.8516,-1.6797 1.0156,-0.7422 1.875,-1.4844 2.8125,-2.3437 1.0546,-0.9375 1.914,-1.836 2.8515,-2.9297 1.0547,-1.1328 1.9141,-2.2266 2.8516,-3.4766 1.0156,-1.3672 1.914,-2.6562 2.8515,-4.0625 1.0157,-1.5625 1.875,-2.9687 2.8125,-4.5703 1.0157,-1.7187 1.9141,-3.2812 2.8516,-5.0391 1.0156,-1.875 1.875,-3.5937 2.8516,-5.5078 1.0156,-2.0312 1.875,-3.8672 2.8515,-5.8984 1.0157,-2.1875 1.875,-4.1016 2.8125,-6.2891 1.0157,-2.3047 1.875,-4.375 2.8516,-6.6797 1.0156,-2.3828 1.875,-4.5312 2.8516,-6.9531 0.9765,-2.5 1.875,-4.7656 2.8125,-7.2656 1.0156,-2.5781 1.914,-4.9219 2.8515,-7.5391 1.0156,-2.6562 1.875,-5.0781 2.8516,-7.7343 0.9765,-2.7735 1.875,-5.2344 2.8515,-8.0079 0.9766,-2.8125 1.875,-5.3125 2.8516,-8.164 0.9766,-2.8516 1.8359,-5.4297 2.8125,-8.2813 1.0156,-2.9297 1.875,-5.5468 2.8516,-8.4765 0.9765,-2.9297 1.875,-5.586 2.8515,-8.5547 0.9766,-2.9688 1.875,-5.6641 2.8516,-8.6328 0.9766,-3.0078 1.8359,-5.7032 2.8125,-8.711 0.9766,-3.0468 1.875,-5.7422 2.8516,-8.789 0.9765,-3.0078 1.875,-5.7422 2.8515,-8.7891 0.9766,-3.0078 1.836,-5.7422 2.8125,-8.7891 1.0156,-3.0078 1.875,-5.7421 2.8516,-8.789 0.9765,-3.0078 1.875,-5.7422 2.8515,-8.75 0.9766,-3.0469 1.875,-5.7422 2.8516,-8.75 0.9766,-3.0078 1.8359,-5.7031 2.8516,-8.6719 0.9765,-3.0078 1.8359,-5.6641 2.8125,-8.6328 0.9765,-2.9688 1.875,-5.5859 2.8515,-8.5547 0.9766,-2.8906 1.875,-5.5469 2.8516,-8.4375 0.9766,-2.8906 1.8359,-5.4687 2.8516,-8.3594 0.9375,-2.8515 1.8359,-5.4296 2.8125,-8.2812 0.9765,-2.8125 1.875,-5.3125 2.8515,-8.125 0.9766,-2.7734 1.875,-5.2734 2.8516,-8.0469 0.9765,-2.7344 1.8359,-5.1562 2.8125,-7.8906 0.9765,-2.6563 1.875,-5.0781 2.8515,-7.7734 0.9766,-2.6172 1.875,-4.961 2.8516,-7.6172 0.9766,-2.5782 1.8359,-4.8828 2.8516,-7.461 0.9765,-2.539 1.8359,-4.8047 2.8125,-7.3047 0.9765,-2.5 1.875,-4.7265 2.8515,-7.1875 0.9766,-2.4218 1.875,-4.6093 2.8516,-7.0312 0.9766,-2.3828 1.8359,-4.5313 2.8516,-6.875 0.9765,-2.3438 1.8359,-4.4141 2.8515,-6.7188 0.9375,-2.2656 1.836,-4.2968 2.8125,-6.5625 0.9766,-2.1875 1.875,-4.1796 2.8516,-6.3671 0.9765,-2.1485 1.8359,-4.1016 2.8515,-6.25 0.9375,-2.0704 1.836,-3.9844 2.8516,-6.0547 0.9375,-2.0703 1.8359,-3.8672 2.8125,-5.8985 0.9766,-1.9922 1.875,-3.789 2.8516,-5.7812 0.9765,-1.9141 1.8359,-3.6328 2.8515,-5.586 0.9766,-1.875 1.836,-3.5546 2.8125,-5.3906 0.9766,-1.8359 1.875,-3.4765 2.8516,-5.3125 0.9766,-1.7578 1.8359,-3.3203 2.8516,-5.0781 0.9765,-1.7188 1.8359,-3.2813 2.8515,-5 0.9375,-1.6406 1.836,-3.125 2.8516,-4.7656 0.9375,-1.6407 1.8359,-3.086 2.8125,-4.6875 0.9765,-1.5625 1.875,-2.9688 2.8515,-4.4922 0.9766,-1.5235 1.836,-2.8906 2.8516,-4.375 0.9375,-1.4844 1.8359,-2.7735 2.8125,-4.2188 0.9766,-1.4453 1.875,-2.6953 2.8516,-4.1015 0.9765,-1.3672 1.8359,-2.5782 2.8515,-3.9453 0.9766,-1.3282 1.836,-2.5 2.8516,-3.8282 0.9766,-1.289 1.8359,-2.4218 2.8125,-3.6718 0.9766,-1.25 1.875,-2.3438 2.8516,-3.5547 0.9765,-1.211 1.8359,-2.2657 2.8515,-3.4375 0.9766,-1.1328 1.836,-2.1875 2.8516,-3.3203 0.9765,-1.0938 1.8359,-2.0704 2.8125,-3.1641 0.9765,-1.0938 1.875,-2.0313 2.8515,-3.0859 0.9766,-1.0157 1.875,-1.9532 2.8516,-2.9688 0.9766,-0.9766 1.8359,-1.875 2.8516,-2.8516 0.9375,-0.9375 1.8359,-1.7968 2.8125,-2.7343 0.9765,-0.9375 1.875,-1.7188 2.8515,-2.6563 0.9766,-0.8594 1.875,-1.6406 2.8516,-2.5 0.9766,-0.8594 1.8359,-1.6406 2.8516,-2.4609 0.9375,-0.8203 1.8359,-1.5625 2.8125,-2.3438 0.9765,-0.7812 1.875,-1.4843 2.8515,-2.2656 0.9766,-0.7422 1.875,-1.4062 2.8516,-2.1484 0.9765,-0.7422 1.8359,-1.3672 2.8515,-2.0703 0.9766,-0.7032 1.836,-1.3282 2.8125,-1.9922 0.9766,-0.7032 1.875,-1.2891 2.8516,-1.9532 0.9766,-0.625 1.8359,-1.1718 2.8516,-1.7968 0.9765,-0.625 1.8359,-1.1719 2.8515,-1.7578 0.9766,-0.625 1.836,-1.1329 2.8125,-1.7188 0.9766,-0.5469 1.875,-1.0547 2.8516,-1.6016 0.9766,-0.5468 1.875,-1.0546 2.8516,-1.5625 0.9765,-0.5078 1.875,-0.9765 2.8515,-1.4843 0.9766,-0.5078 1.836,-0.9375 2.8125,-1.4063 0.9766,-0.5078 1.875,-0.8984 2.8516,-1.3672 0.9765,-0.4687 1.875,-0.8593 2.8515,-1.289 0.9766,-0.4688 1.836,-0.8594 2.8516,-1.25 0.9766,-0.4297 1.8359,-0.8203 2.8125,-1.211 0.9766,-0.3906 1.875,-0.7422 2.8516,-1.1328 0.9765,-0.3906 1.875,-0.7422 2.8515,-1.0937 0.9766,-0.3907 1.836,-0.7032 2.8125,-1.0547 1.0157,-0.3516 1.875,-0.6641 2.8516,-0.9766 0.9766,-0.3515 1.875,-0.664 2.8516,-0.9765 0.9765,-0.3125 1.875,-0.586 2.8515,-0.8985 0.9766,-0.3125 1.836,-0.5859 2.8516,-0.8594 0.9765,-0.3125 1.8359,-0.5468 2.8125,-0.8593 0.9765,-0.2735 1.875,-0.5078 2.8515,-0.7813 0.9766,-0.2734 1.875,-0.5078 2.8516,-0.7422 0.9766,-0.2734 1.8359,-0.4687 2.8125,-0.7422 1.0156,-0.2343 1.875,-0.4296 2.8516,-0.664 0.9765,-0.2344 1.875,-0.4297 2.8515,-0.6641 0.9766,-0.2344 1.875,-0.4297 2.8516,-0.625 0.9766,-0.2344 1.8359,-0.3906 2.8125,-0.5859 1.0156,-0.2344 1.875,-0.3906 2.8516,-0.586 0.9765,-0.1953 1.875,-0.3515 2.8515,-0.5468 0.9766,-0.1953 1.836,-0.3516 2.8516,-0.5078 0.9765,-0.1954 1.8359,-0.3125 2.8515,-0.5079 0.9766,-0.1562 1.836,-0.3125 2.8125,-0.4687 0.9766,-0.1563 1.875,-0.2734 2.8516,-0.4297 0.9766,-0.1562 1.875,-0.2734 2.8516,-0.4297 0.9765,-0.1562 1.875,-0.2734 2.8515,-0.3906 0.9766,-0.1563 1.836,-0.2734 2.8125,-0.3906 0.9766,-0.1563 1.875,-0.2344 2.8516,-0.3907 0.9766,-0.1171 1.875,-0.1953 2.8516,-0.3125 0.9765,-0.1562 1.8359,-0.2343 2.8125,-0.3515 1.0156,-0.1172 1.875,-0.1953 2.8515,-0.3125 0.9766,-0.1172 1.875,-0.1953 2.8516,-0.3125 0.9765,-0.078 1.875,-0.1953 2.8515,-0.2735 0.9766,-0.1171 1.836,-0.1953 2.8125,-0.2734 1.0157,-0.078 1.875,-0.1562 2.8516,-0.2734 0.9766,-0.078 1.875,-0.1563 2.8516,-0.2344 0.9765,-0.078 1.875,-0.1563 2.8515,-0.2344 0.9766,-0.078 1.836,-0.1562 2.8125,-0.2344 0.9766,-0.039 1.875,-0.1171 2.8516,-0.1953 0.9766,-0.078 1.875,-0.1172 2.8516,-0.1953 0.9765,-0.078 1.875,-0.1172 2.8515,-0.1953 0.9766,-0.078 1.836,-0.1172 2.8125,-0.1953 0.9766,-0.039 1.875,-0.078 2.8516,-0.1563 0.9765,-0.039 1.875,-0.1171 2.8515,-0.1562 0.9766,-0.039 1.875,-0.1172 2.8516,-0.1563 0.9766,-0.039 1.8359,-0.1171 2.8125,-0.1562 1.0156,-0.039 1.875,-0.078 2.8516,-0.1172 0.9765,-0.078 1.875,-0.1172 2.8515,-0.1562 0.9766,-0.039 1.836,-0.078 2.8516,-0.1172 0.9766,-0.039 1.8359,-0.078 2.8516,-0.1172 0.9765,-0.039 1.8359,-0.078 2.8125,-0.1172 0.9765,-0.039 1.875,-0.078 2.8515,-0.078 0.9766,-0.078 1.875,-0.078 2.8516,-0.1172 0.9765,-0.039 2.8125,-0.1172 2.8125,-0.1172"
       style="fill:#e6e6e6;fill-opacity:1;fill-rule:nonzero;stroke:#000000;stroke-width:7.97011;stroke-linecap:butt;stroke-linejoin:miter;stroke-miterlimit:10;stroke-opacity:1" />
    <path
       id="path4"
       transform="matrix(0.1,0,0,-0.1,0,842)"
       d="m 1133.8281,3809.375 h 565.4688"
       style="fill:none;stroke:#000000;stroke-width:7.97011;stroke-linecap:butt;stroke-linejoin:miter;stroke-miterlimit:10;stroke-opacity:1" />
  </g>
</svg>
