<?xml version="1.0" encoding="UTF-8" standalone="no"?>
<svg
   xmlns:dc="http://purl.org/dc/elements/1.1/"
   xmlns:cc="http://creativecommons.org/ns#"
   xmlns:rdf="http://www.w3.org/1999/02/22-rdf-syntax-ns#"
   xmlns:svg="http://www.w3.org/2000/svg"
   xmlns="http://www.w3.org/2000/svg"
   xmlns:sodipodi="http://sodipodi.sourceforge.net/DTD/sodipodi-0.dtd"
   xmlns:inkscape="http://www.inkscape.org/namespaces/inkscape"
   sodipodi:docname="continuous-distributions-pspic5.pdf"
   id="svg7"
   version="1.2"
   viewBox="0 0 56.708347 50.391281"
   height="50.391281pt"
   width="56.708347pt">
  <metadata
     id="metadata13">
    <rdf:RDF>
      <cc:Work
         rdf:about="">
        <dc:format>image/svg+xml</dc:format>
        <dc:type
           rdf:resource="http://purl.org/dc/dcmitype/StillImage" />
      </cc:Work>
    </rdf:RDF>
  </metadata>
  <defs
     id="defs11" />
  <sodipodi:namedview
     id="namedview9"
     inkscape:window-height="480"
     inkscape:window-width="640"
     inkscape:pageshadow="2"
     inkscape:pageopacity="0"
     guidetolerance="10"
     gridtolerance="10"
     objecttolerance="10"
     borderopacity="1"
     bordercolor="#666666"
     pagecolor="#ffffff" />
  <g
     transform="translate(-113.38281,-411.06191)"
     id="surface1">
    <path
       id="path2"
       transform="matrix(0.1,0,0,-0.1,0,842)"
       d="m 1145.1563,3809.4922 c 0,0 1.8359,0 2.8125,0.039 0.9375,0.039 1.8359,0.078 2.7734,0.1562 0.9766,0.1172 1.8359,0.2344 2.8125,0.5078 0.9766,0.2735 1.875,0.586 2.7734,1.0938 1.0547,0.5859 1.9141,1.25 2.7735,2.0703 1.1328,1.0547 1.9531,2.1484 2.8125,3.3984 1.1328,1.6797 1.9531,3.3203 2.7734,5.1563 1.1328,2.4218 1.9531,4.6484 2.8125,7.1484 1.0938,3.2422 1.9141,6.1719 2.7734,9.4531 1.0938,4.0235 1.9141,7.6563 2.8125,11.7578 1.0547,4.8829 1.875,9.2579 2.7735,14.1407 1.0547,5.664 1.875,10.7422 2.8125,16.4453 1.0156,6.3672 1.875,12.1094 2.7734,18.4765 1.0156,7.0313 1.875,13.3204 2.8125,20.3516 0.9766,7.5391 1.836,14.3359 2.7735,21.875 1.0156,7.9688 1.8359,15.1563 2.8125,23.125 0.9765,8.2422 1.8359,15.6641 2.7734,23.9453 0.9766,8.4375 1.8359,16.0547 2.7734,24.4922 0.9766,8.5156 1.836,16.1719 2.8125,24.6484 0.9375,8.4766 1.836,16.0938 2.8125,24.5704 0.9375,8.3203 1.7969,15.8203 2.7735,24.1406 0.9375,8.125 1.7968,15.3906 2.7734,23.4765 0.9766,7.8125 1.8359,14.8438 2.8125,22.6172 0.9375,7.461 1.7969,14.1406 2.7734,21.5625 0.9375,6.9922 1.7969,13.3203 2.8125,20.3125 0.9375,6.5625 1.7969,12.4219 2.7735,18.9844 0.9375,6.0547 1.7969,11.4844 2.8125,17.5391 0.8984,5.5468 1.7578,10.5078 2.7734,16.0546 0.9375,5 1.7969,9.4922 2.8125,14.4922 0.8985,4.4922 1.7578,8.5157 2.7735,12.9297 0.8984,3.9453 1.7578,7.5 2.8125,11.4063 0.8984,3.3984 1.7578,6.4843 2.7734,9.8437 0.8984,2.8906 1.7578,5.5078 2.8125,8.3203 0.8594,2.4219 1.7187,4.5703 2.7734,6.9141 0.8985,1.9141 1.7188,3.6328 2.8125,5.4297 0.8594,1.4844 1.6797,2.8125 2.7735,4.1406 0.8593,1.0547 1.7187,1.9531 2.8125,2.8125 0.8593,0.6641 1.7187,1.2109 2.7734,1.6016 0.9375,0.3515 1.8359,0.5078 2.7734,0.4687 1.0157,-0.039 1.875,-0.2344 2.8125,-0.5859 1.0157,-0.3906 1.875,-0.9375 2.8125,-1.6016 1.0157,-0.7422 1.875,-1.5625 2.7735,-2.5 1.0547,-1.0937 1.875,-2.1484 2.7734,-3.3594 1.0547,-1.3671 1.9141,-2.6953 2.8125,-4.1406 1.0156,-1.6406 1.875,-3.125 2.7735,-4.8047 1.0156,-1.875 1.875,-3.5937 2.8125,-5.5078 1.0156,-2.0312 1.875,-3.9062 2.7734,-6.0156 1.0156,-2.2266 1.875,-4.2578 2.8125,-6.5625 0.9766,-2.3828 1.8359,-4.5703 2.7734,-6.9922 1.0157,-2.5391 1.875,-4.8047 2.8125,-7.3828 0.9766,-2.6563 1.836,-5.0391 2.7735,-7.7344 0.9765,-2.7734 1.8359,-5.2344 2.8125,-8.0078 0.9765,-2.8906 1.8359,-5.4297 2.7734,-8.2812 0.9766,-2.9297 1.8359,-5.5469 2.8125,-8.4766 0.9375,-3.0078 1.7969,-5.7031 2.7734,-8.6719 0.9766,-3.0078 1.836,-5.7422 2.7735,-8.789 0.9765,-3.0469 1.875,-5.7813 2.8125,-8.8672 0.9765,-3.086 1.8359,-5.8594 2.8125,-8.9453 0.9375,-3.086 1.7969,-5.8594 2.7734,-8.9454 0.9766,-3.125 1.836,-5.8984 2.7735,-9.0234 0.9765,-3.0859 1.8359,-5.8594 2.8125,-8.9844 0.9765,-3.0468 1.8359,-5.8203 2.7734,-8.9062 0.9766,-3.086 1.8359,-5.8203 2.8125,-8.9063 0.9375,-3.0468 1.7969,-5.7812 2.7734,-8.789 0.9766,-3.0469 1.836,-5.7422 2.8125,-8.75 0.9375,-3.0078 1.7969,-5.6641 2.7735,-8.6328 0.9765,-2.9688 1.8359,-5.586 2.8125,-8.5547 0.9375,-2.8907 1.7968,-5.5078 2.7734,-8.3985 0.9766,-2.8515 1.8359,-5.3906 2.8125,-8.2421 0.9375,-2.8125 1.7969,-5.3516 2.7734,-8.1641 0.9766,-2.7344 1.836,-5.2344 2.8125,-7.9688 0.9375,-2.7343 1.7969,-5.1562 2.7735,-7.8515 0.9765,-2.6563 1.8359,-5.0391 2.7734,-7.6563 0.9766,-2.6172 1.836,-4.9218 2.8125,-7.539 0.9375,-2.5391 1.7969,-4.8047 2.7735,-7.3438 0.9765,-2.5 1.8359,-4.7265 2.8125,-7.2265 0.9375,-2.3829 1.7968,-4.5704 2.7734,-6.9922 0.9766,-2.3828 1.8359,-4.4922 2.8125,-6.875 0.9375,-2.3047 1.7969,-4.375 2.7734,-6.6797 0.9766,-2.2656 1.836,-4.2969 2.8125,-6.5235 0.9375,-2.1875 1.7969,-4.1796 2.7735,-6.3671 0.9765,-2.1485 1.8359,-4.0625 2.8125,-6.1719 0.9375,-2.1094 1.7968,-3.9453 2.7734,-6.0156 0.9766,-2.0313 1.8359,-3.8672 2.8125,-5.8594 0.9375,-1.9922 1.7969,-3.75 2.7734,-5.7031 0.9766,-1.9141 1.836,-3.6329 2.8125,-5.5469 0.9375,-1.836 1.7969,-3.5156 2.7735,-5.3516 0.9375,-1.8359 1.8359,-3.4375 2.8125,-5.2344 0.9375,-1.7578 1.7969,-3.3203 2.7734,-5.0781 0.9766,-1.6797 1.836,-3.2422 2.8125,-4.9219 0.9375,-1.6406 1.7969,-3.125 2.7735,-4.7656 0.9375,-1.6015 1.8359,-3.0469 2.7734,-4.6094 0.9766,-1.5625 1.8359,-2.9687 2.8125,-4.4921 0.9375,-1.5235 1.7969,-2.8516 2.7734,-4.375 0.9766,-1.4454 1.836,-2.7344 2.8125,-4.1797 0.9375,-1.4453 1.7969,-2.6953 2.7735,-4.1016 0.9765,-1.3672 1.8359,-2.5781 2.8125,-3.9453 0.9375,-1.3281 1.7968,-2.5391 2.7734,-3.8281 0.9766,-1.2891 1.8359,-2.461 2.8125,-3.711 0.9375,-1.25 1.7969,-2.3437 2.7734,-3.5937 0.9766,-1.211 1.836,-2.3047 2.8125,-3.4766 0.9375,-1.1719 1.7969,-2.1875 2.7735,-3.3594 0.9765,-1.1328 1.8359,-2.1484 2.8125,-3.2421 0.9375,-1.0938 1.7969,-2.0704 2.7734,-3.1641 0.9766,-1.0547 1.836,-1.9922 2.7735,-3.0078 0.9765,-1.0547 1.8359,-1.9531 2.8125,-2.9688 0.9375,-0.9765 1.8359,-1.875 2.8125,-2.8515 0.9375,-0.9375 1.7968,-1.7969 2.7734,-2.7344 0.9766,-0.9375 1.8359,-1.7578 2.7734,-2.6563 0.9766,-0.8984 1.836,-1.6796 2.8125,-2.5781 0.9375,-0.8594 1.836,-1.6406 2.7735,-2.5 0.9765,-0.8203 1.8359,-1.5625 2.8125,-2.3828 0.9375,-0.8203 1.8359,-1.5234 2.7734,-2.3437 0.9766,-0.7813 1.8359,-1.4454 2.8125,-2.2266 0.9375,-0.7422 1.7969,-1.4453 2.7734,-2.1484 0.9766,-0.7422 1.836,-1.4063 2.8125,-2.1094 0.9375,-0.7031 1.836,-1.3281 2.7735,-2.0313 0.9765,-0.664 1.8359,-1.289 2.8125,-1.9531 0.9375,-0.6641 1.7969,-1.25 2.7734,-1.875 0.9766,-0.625 1.836,-1.2109 2.8125,-1.8359 0.9375,-0.625 1.7969,-1.1719 2.7735,-1.7578 0.9765,-0.586 1.8359,-1.1329 2.8125,-1.6797 0.9375,-0.586 1.7968,-1.0938 2.7734,-1.6797 0.9766,-0.5469 1.8359,-1.0156 2.8125,-1.5625 0.9375,-0.5469 1.7969,-1.0156 2.7734,-1.5625 0.9766,-0.5078 1.836,-0.9766 2.7735,-1.4453 0.9765,-0.5078 1.8359,-0.9375 2.8125,-1.4453 0.9765,-0.4688 1.8359,-0.8985 2.8125,-1.3672 0.9375,-0.4688 1.7968,-0.8985 2.7734,-1.3282 0.9766,-0.4687 1.8359,-0.8593 2.7734,-1.289 0.9766,-0.4688 1.836,-0.8203 2.8125,-1.25 0.9766,-0.4297 1.836,-0.8203 2.7735,-1.211 0.9765,-0.3906 1.8359,-0.7812 2.8125,-1.1718 0.9375,-0.3907 1.7969,-0.7422 2.7734,-1.1328 0.9766,-0.3516 1.836,-0.7032 2.8125,-1.0547 0.9375,-0.3907 1.836,-0.7032 2.7735,-1.0547 0.9765,-0.3516 1.8359,-0.6641 2.8125,-1.0156 0.9375,-0.3516 1.7968,-0.625 2.7734,-0.9766 0.9766,-0.3125 1.8359,-0.625 2.8125,-0.9375 0.9375,-0.3125 1.7969,-0.5859 2.7734,-0.8984 0.9766,-0.3125 1.836,-0.586 2.8125,-0.8985 0.9375,-0.2734 1.7969,-0.5469 2.7735,-0.8203 0.9765,-0.3125 1.8359,-0.5469 2.7734,-0.8203 0.9766,-0.3125 1.8359,-0.5469 2.8125,-0.8203 0.9766,-0.2735 1.8359,-0.4688 2.7734,-0.7422 0.9766,-0.2734 1.836,-0.5078 2.8125,-0.7422 0.9375,-0.2344 1.836,-0.4687 2.7735,-0.7031 0.9765,-0.2735 1.8359,-0.4688 2.8125,-0.7031 0.9765,-0.2344 1.8359,-0.4297 2.7734,-0.6641 0.9766,-0.2344 1.836,-0.4297 2.8125,-0.625 0.9375,-0.2344 1.836,-0.4297 2.7735,-0.6641 0.9765,-0.1953 1.8359,-0.3515 2.8125,-0.5859 0.9375,-0.1953 1.8359,-0.3906 2.7734,-0.5859 0.9766,-0.1954 1.8359,-0.3516 2.8125,-0.5469 0.9375,-0.1953 1.7969,-0.3516 2.7734,-0.5469 0.9766,-0.1562 1.836,-0.3516 2.8125,-0.5078 0.9375,-0.1953 1.836,-0.3516 2.7735,-0.5078 0.9765,-0.1953 1.8359,-0.3125 2.8125,-0.5078 0.9375,-0.1563 1.7968,-0.3125 2.7734,-0.4688 0.9766,-0.1562 1.8359,-0.2734 2.8125,-0.4297 0.9375,-0.1562 1.7969,-0.3125 2.7734,-0.4687 0.9766,-0.1172 1.836,-0.2735 2.7735,-0.4297 0.9765,-0.1172 1.8359,-0.2734 2.8125,-0.3906 0.9765,-0.1563 1.8359,-0.2735 2.7734,-0.3907 0.9766,-0.1562 1.836,-0.2734 2.8125,-0.3906 0.9766,-0.1172 1.836,-0.2344 2.7735,-0.3906 0.9765,-0.1172 1.8359,-0.2344 2.8125,-0.3516 0.9375,-0.1172 1.8359,-0.2343 2.7734,-0.3515 0.9766,-0.1172 1.8359,-0.1953 2.8125,-0.3125 0.9766,-0.1172 1.8359,-0.2344 2.7734,-0.3516 0.9766,-0.078 1.836,-0.1953 2.8125,-0.3125 0.9375,-0.078 1.7969,-0.1953 2.7735,-0.2734 0.9765,-0.1172 1.8359,-0.1953 2.8125,-0.3125 0.9375,-0.078 1.7968,-0.1953 2.7734,-0.2735 0.9766,-0.078 1.8359,-0.1953 2.7734,-0.2734 0.9766,-0.1172 1.836,-0.1953 2.8125,-0.2734 0.9766,-0.078 1.836,-0.1563 2.8125,-0.2344 0.9375,-0.1172 1.7969,-0.1953 2.7735,-0.2735 0.9765,-0.078 1.8359,-0.1562 2.7734,-0.2343 0.9766,-0.078 1.836,-0.1563 2.8125,-0.2344 0.9766,-0.078 1.836,-0.1563 2.8125,-0.2344 0.9375,-0.039 1.7969,-0.1172 2.7735,-0.1953 0.9765,-0.078 1.8359,-0.1562 2.7734,-0.1953 0.9766,-0.078 1.8359,-0.1563 2.8125,-0.2344 0.9375,-0.078 1.8359,-0.1172 2.7734,-0.1953 0.9766,-0.039 1.836,-0.1172 2.8125,-0.1562 0.9375,-0.078 1.836,-0.1563 2.7735,-0.1954 0.9765,-0.078 1.8359,-0.1171 2.8125,-0.1953 0.9375,-0.039 1.8359,-0.1172 2.7734,-0.1562 0.9766,-0.078 1.8359,-0.1172 2.8125,-0.1563 0.9375,-0.078 1.7969,-0.1172 2.7734,-0.1953 0.9766,-0.039 1.836,-0.078 2.8125,-0.1562 0.9375,-0.039 1.7969,-0.078 2.7735,-0.1172 0.9765,-0.078 1.8359,-0.1172 2.8125,-0.1563 0.9375,-0.078 1.7969,-0.1172 2.7734,-0.1562 0.9766,-0.039 1.836,-0.078 2.7735,-0.1172 0.9765,-0.078 1.8359,-0.078 2.8125,-0.1563 0.9765,-0.039 1.8359,-0.078 2.8125,-0.1171 0.9375,-0.039 2.7734,-0.1172 2.7734,-0.1172"
       style="fill:#e6e6e6;fill-opacity:1;fill-rule:nonzero;stroke:#000000;stroke-width:7.97011;stroke-linecap:butt;stroke-linejoin:miter;stroke-miterlimit:10;stroke-opacity:1" />
    <path
       id="path4"
       transform="matrix(0.1,0,0,-0.1,0,842)"
       d="m 1133.8281,3809.4531 h 566.9141"
       style="fill:none;stroke:#000000;stroke-width:7.97011;stroke-linecap:butt;stroke-linejoin:miter;stroke-miterlimit:10;stroke-opacity:1" />
  </g>
</svg>
