<?xml version="1.0" encoding="UTF-8" standalone="no"?>
<svg
   xmlns:dc="http://purl.org/dc/elements/1.1/"
   xmlns:cc="http://creativecommons.org/ns#"
   xmlns:rdf="http://www.w3.org/1999/02/22-rdf-syntax-ns#"
   xmlns:svg="http://www.w3.org/2000/svg"
   xmlns="http://www.w3.org/2000/svg"
   xmlns:sodipodi="http://sodipodi.sourceforge.net/DTD/sodipodi-0.dtd"
   xmlns:inkscape="http://www.inkscape.org/namespaces/inkscape"
   sodipodi:docname="continuous-distributions-pspic8.pdf"
   id="svg7"
   version="1.2"
   viewBox="0 0 53.325169 40.308506"
   height="40.308506pt"
   width="53.325169pt">
  <metadata
     id="metadata13">
    <rdf:RDF>
      <cc:Work
         rdf:about="">
        <dc:format>image/svg+xml</dc:format>
        <dc:type
           rdf:resource="http://purl.org/dc/dcmitype/StillImage" />
      </cc:Work>
    </rdf:RDF>
  </metadata>
  <defs
     id="defs11" />
  <sodipodi:namedview
     id="namedview9"
     inkscape:window-height="480"
     inkscape:window-width="640"
     inkscape:pageshadow="2"
     inkscape:pageopacity="0"
     guidetolerance="10"
     gridtolerance="10"
     objecttolerance="10"
     borderopacity="1"
     bordercolor="#666666"
     pagecolor="#ffffff" />
  <g
     transform="translate(-116.61719,-421.1525)"
     id="surface1">
    <path
       id="path2"
       transform="matrix(0.1,0,0,-0.1,0,842)"
       d="m 1214.6484,3809.375 c 0,0 3.2032,18.2813 4.8829,27.8906 1.6796,9.5703 3.2031,18.1641 4.8828,27.7344 1.6797,9.4922 3.2031,17.9688 4.9218,27.4219 1.6797,9.3359 3.2032,17.6953 4.8829,26.9922 1.6796,9.1015 3.2031,17.3047 4.8828,26.3672 1.6797,8.8671 3.2031,16.7968 4.9218,25.664 1.6407,8.5547 3.1641,16.211 4.8829,24.7656 1.6796,8.2032 3.164,15.5469 4.9218,23.75 1.6407,7.8125 3.125,14.8438 4.8828,22.6563 1.6407,7.4219 3.1641,14.0625 4.8829,21.4453 1.6406,6.9531 3.164,13.2031 4.9218,20.1172 1.6016,6.4453 3.125,12.2656 4.8828,18.7109 1.6407,5.9766 3.125,11.3281 4.8829,17.2266 1.6406,5.4687 3.125,10.3515 4.9218,15.7422 1.6016,4.8828 3.086,9.2578 4.8828,14.1015 1.6016,4.375 3.086,8.2422 4.8829,12.5 1.6015,3.8282 3.0859,7.1875 4.9218,10.8985 1.5625,3.2031 3.0469,6.0937 4.8828,9.2187 1.5625,2.6563 3.0469,5.0391 4.8829,7.5781 1.6015,2.1485 3.0468,4.0235 4.9218,5.9375 1.5625,1.6016 3.0469,3.0079 4.8828,4.2969 1.5625,1.1328 3.086,2.0703 4.8829,2.7735 1.6406,0.664 3.164,1.0937 4.9218,1.25 1.6797,0.1562 3.2422,0.078 4.8828,-0.2344 1.7579,-0.3516 3.2813,-0.8985 4.8829,-1.6406 1.7968,-0.8204 3.3203,-1.836 4.9218,-3.0079 1.7969,-1.289 3.2813,-2.6562 4.8828,-4.2187 1.7969,-1.7578 3.2813,-3.4766 4.8829,-5.4297 1.7968,-2.1484 3.3203,-4.2187 4.9218,-6.4844 1.7578,-2.539 3.2813,-4.8828 4.8828,-7.5 1.7579,-2.8906 3.2813,-5.5078 4.9219,-8.4375 1.7188,-3.164 3.2422,-6.0156 4.8828,-9.2187 1.7188,-3.3985 3.2422,-6.4844 4.8828,-9.961 1.7579,-3.5937 3.2422,-6.875 4.8829,-10.5468 1.7578,-3.8282 3.2421,-7.2657 4.9218,-11.0938 1.7188,-3.9844 3.2422,-7.539 4.8828,-11.5234 1.7188,-4.1016 3.2422,-7.7735 4.8829,-11.9141 1.7187,-4.1797 3.2421,-7.9297 4.9218,-12.1093 1.6797,-4.2579 3.2032,-8.086 4.8828,-12.3438 1.7188,-4.2969 3.2032,-8.125 4.9219,-12.4219 1.6797,-4.2968 3.2031,-8.164 4.8828,-12.4609 1.6797,-4.2578 3.2032,-8.125 4.8828,-12.4219 1.6797,-4.2187 3.2032,-8.0469 4.9219,-12.3047 1.6797,-4.1797 3.2031,-7.9687 4.8828,-12.1484 1.6797,-4.1406 3.2032,-7.8516 4.8828,-11.9531 1.6797,-4.0235 3.2032,-7.6563 4.9219,-11.6797 1.6406,-3.9453 3.1641,-7.461 4.8828,-11.4063 1.6797,-3.789 3.2032,-7.2265 4.8828,-11.0156 1.6797,-3.7109 3.2032,-7.0312 4.9219,-10.7031 1.6406,-3.5938 3.1641,-6.7578 4.8828,-10.3125 1.6797,-3.3985 3.1641,-6.4844 4.8828,-9.8828 1.6797,-3.2813 3.2032,-6.211 4.9219,-9.4532 1.6406,-3.125 3.1641,-5.9375 4.8828,-9.0234 1.6407,-2.9687 3.1641,-5.625 4.8828,-8.5937 1.6797,-2.8125 3.2032,-5.3516 4.9219,-8.125 1.6406,-2.6563 3.1641,-5.0391 4.8828,-7.6954 1.6407,-2.5 3.1641,-4.7656 4.8828,-7.2265 1.6797,-2.3828 3.2032,-4.4531 4.9219,-6.7969 1.6406,-2.2266 3.1641,-4.1797 4.8828,-6.3672 1.6797,-2.0703 3.1641,-3.9453 4.9219,-5.9765 1.6406,-1.9141 3.1641,-3.6329 4.8828,-5.5079 1.6406,-1.8359 3.1641,-3.3984 4.8828,-5.1562 1.6797,-1.6797 3.1641,-3.1641 4.9219,-4.7656 1.6406,-1.5625 3.1641,-2.9297 4.8828,-4.4141 1.6406,-1.4453 3.1641,-2.6953 4.8828,-4.0625 1.6797,-1.3281 3.2032,-2.5 4.8828,-3.75 1.6797,-1.2109 3.2032,-2.2656 4.9219,-3.4375 1.6797,-1.0937 3.2031,-2.0703 4.8828,-3.125 1.6797,-1.0156 3.2032,-1.9141 4.8828,-2.8516 1.6797,-0.9375 3.2032,-1.7578 4.9219,-2.6171 1.6797,-0.8594 3.2031,-1.5625 4.8828,-2.3829 1.6797,-0.7421 3.2032,-1.4062 4.9219,-2.1093 1.6797,-0.7032 3.1641,-1.3282 4.8828,-1.9532 1.6797,-0.625 3.2031,-1.1718 4.8828,-1.7578 1.6797,-0.5468 3.2032,-1.0156 4.9219,-1.5625 1.6797,-0.5078 3.2031,-0.9375 4.8828,-1.4062 1.6797,-0.4688 3.2031,-0.8594 4.8828,-1.25 1.7188,-0.4297 3.2032,-0.7813 4.9219,-1.1328 1.6797,-0.3516 3.2031,-0.6641 4.8828,-1.0157 1.6797,-0.3125 3.2031,-0.5859 4.8828,-0.8984 1.7188,-0.2734 3.2032,-0.5078 4.9219,-0.7812 1.6797,-0.2344 3.2031,-0.4688 4.8828,-0.7032 1.6797,-0.2343 3.2031,-0.4297 4.8828,-0.625 1.7188,-0.1953 3.2032,-0.3515 4.9219,-0.5468 1.6797,-0.1563 3.2031,-0.3125 4.8828,-0.4688 1.6797,-0.1562 3.2031,-0.2734 4.8828,-0.4297 1.7188,-0.1172 3.2422,-0.2344 4.9219,-0.3515 1.6797,-0.1172 3.2031,-0.2344 4.8828,-0.3125 1.6797,-0.1172 3.2031,-0.1954 4.8828,-0.3125 1.7188,-0.078 3.2032,-0.1563 4.9219,-0.2344 1.6797,-0.078 3.2031,-0.1563 4.8828,-0.1953 1.6797,-0.078 3.2031,-0.1563 4.9219,-0.1953 1.6797,-0.078 3.1641,-0.1172 4.8828,-0.1563 1.6797,-0.078 3.2031,-0.1172 4.8828,-0.1562 1.6797,-0.039 3.2031,-0.078 4.9219,-0.1172 1.6797,-0.039 3.2031,-0.078 4.8828,-0.078 1.6797,-0.039 3.2031,-0.078 4.8828,-0.1171 1.7188,0 3.2031,-0.039 4.8828,-0.039 1.7188,-0.039 4.9219,-0.078 4.9219,-0.078"
       style="fill:#e6e6e6;fill-opacity:1;fill-rule:nonzero;stroke:#000000;stroke-width:7.97011;stroke-linecap:butt;stroke-linejoin:miter;stroke-miterlimit:10;stroke-opacity:1" />
    <path
       id="path4"
       transform="matrix(0.1,0,0,-0.1,0,842)"
       d="M 1166.1719,3809.375 H 1699.375"
       style="fill:none;stroke:#000000;stroke-width:7.97011;stroke-linecap:butt;stroke-linejoin:miter;stroke-miterlimit:10;stroke-opacity:1" />
  </g>
</svg>
