<?xml version="1.0" encoding="UTF-8" standalone="no"?>
<svg
   xmlns:dc="http://purl.org/dc/elements/1.1/"
   xmlns:cc="http://creativecommons.org/ns#"
   xmlns:rdf="http://www.w3.org/1999/02/22-rdf-syntax-ns#"
   xmlns:svg="http://www.w3.org/2000/svg"
   xmlns="http://www.w3.org/2000/svg"
   xmlns:sodipodi="http://sodipodi.sourceforge.net/DTD/sodipodi-0.dtd"
   xmlns:inkscape="http://www.inkscape.org/namespaces/inkscape"
   sodipodi:docname="continuous-distributions-pspic12.pdf"
   id="svg7"
   version="1.2"
   viewBox="0 0 56.716263 50.329453"
   height="50.329453pt"
   width="56.716263pt">
  <metadata
     id="metadata13">
    <rdf:RDF>
      <cc:Work
         rdf:about="">
        <dc:format>image/svg+xml</dc:format>
        <dc:type
           rdf:resource="http://purl.org/dc/dcmitype/StillImage" />
      </cc:Work>
    </rdf:RDF>
  </metadata>
  <defs
     id="defs11" />
  <sodipodi:namedview
     id="namedview9"
     inkscape:window-height="480"
     inkscape:window-width="640"
     inkscape:pageshadow="2"
     inkscape:pageopacity="0"
     guidetolerance="10"
     gridtolerance="10"
     objecttolerance="10"
     borderopacity="1"
     bordercolor="#666666"
     pagecolor="#ffffff" />
  <g
     transform="translate(-113.36186,-411.13155)"
     id="surface1">
    <path
       id="path2"
       transform="matrix(0.1,0,0,-0.1,0,842)"
       d="m 1133.8672,3812.6953 c 0,0 1.875,0.1172 2.8516,0.1953 0.9765,0.039 1.8359,0.1172 2.8515,0.1563 0.9766,0.078 1.836,0.1172 2.8516,0.1953 0.9765,0.078 1.8359,0.1562 2.8125,0.1953 1.0156,0.078 1.875,0.1563 2.8906,0.2344 0.9766,0.039 1.8359,0.1172 2.8125,0.1953 1.0156,0.078 1.875,0.1562 2.8516,0.2344 1.0156,0.078 1.875,0.1562 2.8515,0.2343 0.9766,0.1172 1.875,0.1954 2.8516,0.2735 0.9766,0.078 1.875,0.1562 2.8516,0.2734 0.9765,0.078 1.875,0.1563 2.8515,0.2735 0.9766,0.1171 1.875,0.1953 2.8516,0.3125 0.9765,0.078 1.875,0.1953 2.8515,0.3125 0.9766,0.1171 1.875,0.1953 2.8516,0.3125 0.9766,0.1171 1.875,0.2343 2.8516,0.3515 0.9765,0.1172 1.875,0.2344 2.8515,0.3516 0.9766,0.1172 1.875,0.2344 2.8516,0.3906 0.9766,0.1172 1.8359,0.2344 2.8516,0.3906 0.9765,0.1563 1.8359,0.2735 2.8515,0.4297 0.9766,0.1172 1.836,0.2735 2.8516,0.4297 0.9765,0.1563 1.8359,0.3125 2.8125,0.4688 1.0156,0.1562 1.875,0.3125 2.8515,0.4687 1.0157,0.1953 1.875,0.3516 2.8516,0.5078 0.9766,0.1953 1.875,0.3516 2.8516,0.5469 0.9765,0.1953 1.875,0.3516 2.8515,0.5859 0.9766,0.1953 1.875,0.3907 2.8516,0.586 0.9766,0.1953 1.875,0.3906 2.8516,0.625 0.9765,0.1953 1.875,0.4297 2.8515,0.664 0.9766,0.2344 1.875,0.4297 2.8516,0.6641 0.9765,0.2344 1.875,0.4687 2.8515,0.7422 0.9766,0.2344 1.836,0.4687 2.8516,0.7422 0.9766,0.2734 1.8359,0.5078 2.8516,0.8203 0.9765,0.2734 1.8359,0.5078 2.8125,0.8203 1.0156,0.2734 1.875,0.5859 2.8515,0.8594 1.0157,0.3125 1.875,0.625 2.8516,0.9375 0.9766,0.3515 1.875,0.625 2.8516,0.9765 1.0156,0.3516 1.875,0.6641 2.8515,1.0157 0.9766,0.3515 1.875,0.7031 2.8516,1.0546 0.9765,0.3907 1.875,0.7422 2.8515,1.1329 0.9766,0.3906 1.875,0.7812 2.8516,1.1718 0.9766,0.4297 1.875,0.8203 2.8516,1.25 0.9765,0.4297 1.875,0.8203 2.8515,1.2891 0.9766,0.4687 1.875,0.8984 2.8516,1.3672 0.9766,0.4687 1.875,0.8984 2.8516,1.4062 0.9765,0.5078 1.875,0.9766 2.8515,1.5235 0.9766,0.5078 1.875,1.0156 2.8516,1.5625 0.9765,0.5468 1.875,1.0547 2.8515,1.6406 0.9766,0.5859 1.875,1.1328 2.8516,1.7187 0.9766,0.625 1.8359,1.211 2.8125,1.836 1.0156,0.625 1.875,1.2109 2.8516,1.875 1.0156,0.7031 1.875,1.3281 2.8515,1.9922 1.0157,0.7422 1.875,1.3672 2.8516,2.1093 1.0156,0.7422 1.875,1.4063 2.8516,2.1875 1.0156,0.7813 1.875,1.4844 2.8515,2.3047 0.9766,0.7813 1.875,1.5235 2.8516,2.3828 0.9765,0.8594 1.875,1.6407 2.8515,2.5 0.9766,0.8985 1.875,1.7188 2.8516,2.6563 0.9766,0.9375 1.875,1.7969 2.8516,2.7344 0.9765,0.9765 1.875,1.875 2.8515,2.8906 0.9766,1.0547 1.875,1.9922 2.8516,3.0078 0.9766,1.0938 1.875,2.0703 2.8516,3.1641 0.9765,1.1328 1.875,2.1484 2.8515,3.3203 0.9766,1.1719 1.875,2.2265 2.8516,3.4375 0.9765,1.25 1.8359,2.3437 2.8125,3.6328 1.0156,1.2891 1.914,2.4609 2.8515,3.75 1.0157,1.3672 1.875,2.5781 2.8516,3.9453 1.0156,1.4063 1.9141,2.6953 2.8516,4.1016 1.0156,1.4843 1.875,2.8125 2.8515,4.2968 1.0157,1.5235 1.875,2.9297 2.8516,4.4532 1.0156,1.6406 1.875,3.0468 2.8516,4.6875 1.0156,1.6797 1.875,3.164 2.8515,4.8437 1.0156,1.7578 1.875,3.3203 2.8516,5.0781 0.9765,1.836 1.875,3.4375 2.8515,5.2735 0.9766,1.914 1.875,3.5937 2.8516,5.5078 0.9766,1.9531 1.875,3.75 2.8516,5.7031 0.9765,2.0703 1.875,3.9063 2.8125,5.9375 1.0156,2.1485 1.914,4.0625 2.8515,6.1719 1.0157,2.2266 1.9141,4.2187 2.8516,6.4062 1.0156,2.3047 1.9141,4.375 2.8516,6.6407 1.0156,2.3828 1.875,4.5312 2.8515,6.914 1.0156,2.461 1.875,4.6485 2.8516,7.1485 1.0156,2.539 1.875,4.8047 2.8515,7.3828 1.0157,2.6172 1.875,5 2.8516,7.6172 1.0156,2.7343 1.875,5.1953 2.8516,7.8906 0.9765,2.8125 1.875,5.3516 2.8515,8.1641 0.9766,2.8906 1.875,5.5078 2.8516,8.3984 0.9766,2.9687 1.875,5.6641 2.8516,8.6328 0.9765,3.0859 1.875,5.8203 2.8515,8.9063 0.9766,3.164 1.875,5.9765 2.8516,9.1406 0.9765,3.2422 1.875,6.1328 2.8515,9.375 0.9766,3.3203 1.875,6.289 2.8516,9.5703 0.9766,3.3984 1.8359,6.4453 2.8125,9.8437 1.0156,3.4375 1.875,6.5625 2.8516,10 1.0156,3.5157 1.875,6.6797 2.8515,10.2344 1.0157,3.5547 1.875,6.7578 2.8516,10.3516 1.0156,3.6328 1.875,6.914 2.8516,10.5468 1.0156,3.6719 1.875,6.9922 2.8515,10.6641 0.9766,3.7109 1.875,7.0703 2.8516,10.7813 0.9765,3.75 1.875,7.1093 2.8515,10.8203 0.9766,3.789 1.875,7.1484 2.8516,10.8984 0.9766,3.75 1.875,7.1484 2.8516,10.8984 0.9765,3.75 1.875,7.1094 2.8515,10.8594 0.9766,3.75 1.836,7.0703 2.8516,10.8203 0.9766,3.6719 1.8359,6.9922 2.8516,10.6641 0.9765,3.6328 1.8359,6.875 2.8515,10.5078 0.9375,3.5547 1.836,6.7578 2.8516,10.2734 0.9375,3.4766 1.8359,6.5625 2.8125,10 0.9765,3.3594 1.875,6.3672 2.8515,9.6875 0.9766,3.2032 1.875,6.0547 2.8516,9.2579 0.9766,3.0078 1.8359,5.7421 2.8516,8.75 0.9765,2.8515 1.8359,5.3906 2.8515,8.2421 0.9375,2.6172 1.836,5 2.8516,7.6172 0.9375,2.3828 1.8359,4.5313 2.8516,6.875 0.9375,2.1485 1.7968,4.0625 2.8515,6.1328 0.8985,1.875 1.7969,3.5157 2.8516,5.3125 0.8984,1.5235 1.7578,2.8907 2.8515,4.336 0.8985,1.2109 1.7579,2.2656 2.8516,3.3594 0.8984,0.8593 1.7578,1.6015 2.8516,2.2265 0.8984,0.5078 1.7968,0.9375 2.8125,1.0938 0.9765,0.1562 1.914,0.1172 2.8515,-0.1172 1.0938,-0.2735 1.9922,-0.7813 2.8516,-1.4063 1.1328,-0.8203 1.9922,-1.7187 2.8516,-2.7734 1.1328,-1.3281 1.9921,-2.6563 2.8515,-4.1406 1.0938,-1.836 1.9531,-3.5938 2.8516,-5.586 1.0937,-2.3437 1.9531,-4.5312 2.8515,-6.9922 1.0938,-2.8906 1.9532,-5.5468 2.8516,-8.4765 1.0547,-3.3985 1.9141,-6.4844 2.8516,-9.9219 1.0547,-3.9062 1.914,-7.4609 2.8515,-11.3672 1.0157,-4.414 1.9141,-8.3594 2.8516,-12.7734 1.0156,-4.8828 1.9141,-9.2188 2.8516,-14.1016 1.0156,-5.3125 1.875,-10.0781 2.8515,-15.3906 1.0156,-5.7031 1.875,-10.8594 2.8516,-16.5625 1.0156,-6.0938 1.875,-11.5625 2.8515,-17.6563 1.0157,-6.4062 1.875,-12.1484 2.8516,-18.5546 0.9766,-6.6797 1.875,-12.6954 2.8125,-19.4141 1.0156,-6.9141 1.875,-13.0859 2.8516,-20 1.0156,-7.1094 1.875,-13.4375 2.8515,-20.5078 1.0157,-7.1875 1.875,-13.6328 2.8516,-20.8203 0.9766,-7.1875 1.875,-13.6719 2.8516,-20.8985 0.9765,-7.1875 1.875,-13.6328 2.8515,-20.7812 0.9766,-7.1094 1.836,-13.4766 2.8516,-20.5469 0.9765,-6.9531 1.8359,-13.164 2.8515,-20.0781 0.9766,-6.7188 1.836,-12.7344 2.8516,-19.4531 0.9766,-6.4453 1.8359,-12.2266 2.8516,-18.6328 0.9375,-6.1329 1.8359,-11.6016 2.8515,-17.7344 0.9375,-5.7422 1.836,-10.8985 2.8516,-16.6406 0.9375,-5.3125 1.7969,-10.1172 2.8516,-15.4297 0.9375,-4.9219 1.7968,-9.336 2.8515,-14.2578 0.9375,-4.4532 1.7969,-8.4766 2.8516,-12.9297 0.8984,-4.0235 1.7969,-7.6172 2.8125,-11.6016 0.9375,-3.5547 1.8359,-6.7578 2.8515,-10.3125 0.9375,-3.125 1.7969,-5.9375 2.8516,-9.0234 0.9375,-2.6953 1.7969,-5.1172 2.8516,-7.8125 0.9375,-2.3047 1.7968,-4.375 2.8515,-6.6407 0.9375,-1.9531 1.7969,-3.7109 2.8516,-5.5859 0.9375,-1.6406 1.7969,-3.0859 2.8516,-4.6094 0.9375,-1.3672 1.7968,-2.539 2.8515,-3.75 0.8985,-1.0937 1.7969,-2.0312 2.8516,-3.0468 0.9375,-0.8594 1.7969,-1.6016 2.8515,-2.3438 0.9375,-0.7031 1.836,-1.25 2.8516,-1.8359 0.9375,-0.5469 1.8359,-0.9375 2.8516,-1.3672 0.9375,-0.4297 1.8359,-0.7422 2.8125,-1.0156 0.9765,-0.3125 1.875,-0.5469 2.8515,-0.7813 1.0157,-0.1953 1.875,-0.3516 2.8516,-0.5078 0.9766,-0.1563 1.875,-0.2734 2.8516,-0.3906 0.9765,-0.078 1.875,-0.1563 2.8515,-0.2344 0.9766,-0.078 1.875,-0.1172 2.8516,-0.1563 0.9765,-0.039 1.875,-0.078 2.8515,-0.1171 0.9766,-0.039 1.875,-0.039 2.8516,-0.078 0.9766,0 1.875,0 2.8516,-0.039 0.9765,0 1.875,0 2.8515,0 0.9766,0 1.875,0 2.8516,-0.039 0.9766,0 1.875,0 2.8516,0 0.9765,0 1.8359,0 2.8515,0 0.9766,0 1.875,0 2.8516,0 0.9765,0 1.8359,0 2.8515,0 0.9766,0 1.836,0 2.8516,0 0.9766,0 1.8359,0 2.8125,0 1.0156,0 1.875,0 2.8516,0 1.0156,0 1.875,0 2.8515,0 1.0157,0 1.875,0 2.8516,0 0.9766,0 1.875,0 2.8516,0 0.9765,0 1.875,0 2.8515,0 0.9766,0 1.875,0 2.8516,0 0.9765,0 1.875,0 2.8515,0 0.9766,0 1.875,0 2.8516,0 0.9766,0 1.875,0 2.8516,0 0.9765,0 1.875,0 2.8515,0 0.9766,0 1.875,0 2.8516,0 0.9766,0 1.8359,0 2.8516,0 0.9765,0 1.8359,0 2.8515,0 0.9766,0 1.836,0 2.8516,0 0.9765,0 1.8359,0 2.8125,0 1.0156,0 1.875,0 2.8515,0 1.0157,0 1.875,0 2.8516,0 0.9766,0 1.875,0 2.8516,0 0.9765,0 1.875,0 2.8515,0 0.9766,0 1.875,0 2.8516,0 0.9766,0 2.8516,0 2.8516,0"
       style="fill:#e6e6e6;fill-opacity:1;fill-rule:nonzero;stroke:#000000;stroke-width:7.97011;stroke-linecap:butt;stroke-linejoin:miter;stroke-miterlimit:10;stroke-opacity:1" />
    <path
       id="path4"
       transform="matrix(0.1,0,0,-0.1,0,842)"
       d="m 1133.8672,3809.375 h 566.9141"
       style="fill:none;stroke:#000000;stroke-width:7.97011;stroke-linecap:butt;stroke-linejoin:miter;stroke-miterlimit:10;stroke-opacity:1" />
  </g>
</svg>
