<?xml version="1.0" encoding="UTF-8" standalone="no"?>
<svg
   xmlns:dc="http://purl.org/dc/elements/1.1/"
   xmlns:cc="http://creativecommons.org/ns#"
   xmlns:rdf="http://www.w3.org/1999/02/22-rdf-syntax-ns#"
   xmlns:svg="http://www.w3.org/2000/svg"
   xmlns="http://www.w3.org/2000/svg"
   xmlns:sodipodi="http://sodipodi.sourceforge.net/DTD/sodipodi-0.dtd"
   xmlns:inkscape="http://www.inkscape.org/namespaces/inkscape"
   sodipodi:docname="continuous-distributions-pspic10.pdf"
   id="svg7"
   version="1.2"
   viewBox="0 0 56.724583 51.816906"
   height="51.816906pt"
   width="56.724583pt">
  <metadata
     id="metadata13">
    <rdf:RDF>
      <cc:Work
         rdf:about="">
        <dc:format>image/svg+xml</dc:format>
        <dc:type
           rdf:resource="http://purl.org/dc/dcmitype/StillImage" />
      </cc:Work>
    </rdf:RDF>
  </metadata>
  <defs
     id="defs11" />
  <sodipodi:namedview
     id="namedview9"
     inkscape:window-height="480"
     inkscape:window-width="640"
     inkscape:pageshadow="2"
     inkscape:pageopacity="0"
     guidetolerance="10"
     gridtolerance="10"
     objecttolerance="10"
     borderopacity="1"
     bordercolor="#666666"
     pagecolor="#ffffff" />
  <g
     transform="translate(-113.37013,-409.36285)"
     id="surface1">
    <path
       id="path2"
       transform="matrix(0.1,0,0,-0.1,0,842)"
       d="m 1133.8672,3813.1641 c 0,0 3.75,0.1562 5.7422,0.2734 1.9531,0.1172 3.75,0.1953 5.7031,0.3516 1.9922,0.1562 3.75,0.2734 5.7422,0.4297 1.9531,0.1953 3.75,0.3515 5.7031,0.5468 1.9922,0.1953 3.75,0.4297 5.7422,0.6641 1.9531,0.2734 3.75,0.5078 5.7031,0.8594 1.9922,0.2734 3.7891,0.5859 5.7422,0.9765 1.9922,0.3907 3.75,0.7813 5.7422,1.211 1.9531,0.4687 3.75,0.9375 5.7031,1.4843 1.9922,0.5469 3.75,1.0938 5.7422,1.7579 1.9922,0.664 3.75,1.3281 5.7031,2.1093 2.0313,0.7813 3.7891,1.5625 5.7422,2.5 2.0313,0.9375 3.7891,1.836 5.7032,2.9297 2.0312,1.0938 3.8281,2.1875 5.7421,3.4375 2.0313,1.2891 3.7891,2.5391 5.7422,4.0235 2.0313,1.5234 3.7891,2.9687 5.7032,4.6484 2.0703,1.7578 3.8281,3.3984 5.7421,5.3516 2.0313,2.0312 3.8282,3.9062 5.7422,6.0937 2.0313,2.3438 3.7891,4.4922 5.7032,6.9531 2.0703,2.6563 3.8281,5.1172 5.7421,7.8907 2.0704,2.9687 3.8282,5.7421 5.7032,8.8281 2.0703,3.3594 3.8281,6.4062 5.7422,9.8828 2.0703,3.7109 3.8281,7.1094 5.7421,10.9375 2.0313,4.1406 3.7891,7.8906 5.7032,12.0703 2.0703,4.5313 3.8281,8.6328 5.7422,13.2422 2.0312,4.9219 3.8281,9.375 5.7031,14.3359 2.0703,5.3516 3.8281,10.1953 5.7422,15.5469 2.0312,5.7422 3.789,10.8984 5.7422,16.6797 1.9921,6.0937 3.789,11.6016 5.7031,17.7344 2.0312,6.4453 3.789,12.2656 5.7422,18.75 2.0312,6.7968 3.789,12.8906 5.7031,19.6875 2.0312,7.0703 3.7891,13.4375 5.7422,20.5078 1.9922,7.3047 3.789,13.8672 5.7031,21.1719 2.0313,7.4609 3.7891,14.1796 5.7422,21.6406 1.9922,7.6172 3.75,14.414 5.7422,21.9922 1.9922,7.6171 3.75,14.4921 5.7031,22.1093 1.9922,7.5782 3.75,14.375 5.7422,21.9532 1.9531,7.4609 3.7109,14.1796 5.7031,21.6406 1.9922,7.2265 3.75,13.75 5.7422,21.0156 1.9531,6.9531 3.7109,13.2031 5.7422,20.1563 1.9141,6.5625 3.6719,12.4609 5.7031,19.0234 1.9141,6.1328 3.6719,11.6016 5.7422,17.6562 1.9141,5.586 3.6328,10.586 5.7422,16.0938 1.875,4.9219 3.5937,9.375 5.7031,14.2187 1.875,4.2579 3.5938,8.086 5.7422,12.1875 1.8359,3.5157 3.5156,6.6797 5.7031,10 1.836,2.7344 3.5157,5.1954 5.7422,7.6172 1.7969,1.9532 3.5156,3.711 5.7031,5.1563 1.836,1.1719 3.6329,2.1484 5.7422,2.5781 1.9141,0.4297 3.7891,0.4297 5.7422,0 2.1094,-0.4297 3.9063,-1.4062 5.7031,-2.5781 2.2266,-1.4453 3.9454,-3.2031 5.7422,-5.1563 2.2266,-2.4218 3.9063,-4.8828 5.7032,-7.6172 2.1875,-3.3203 3.9062,-6.4843 5.7421,-10 2.1485,-4.1015 3.8672,-7.9296 5.7422,-12.1875 2.1094,-4.8437 3.8282,-9.2968 5.7032,-14.2187 2.1093,-5.5078 3.8671,-10.5078 5.7421,-16.0938 2.0704,-6.0546 3.7891,-11.5234 5.7422,-17.6562 2.0313,-6.5625 3.7891,-12.4609 5.7032,-19.0234 2.0312,-6.9532 3.789,-13.2032 5.7421,-20.1563 1.9922,-7.2656 3.75,-13.7891 5.7032,-21.0156 2.0312,-7.461 3.789,-14.1797 5.7422,-21.6406 1.9921,-7.5782 3.75,-14.375 5.7421,-21.9532 1.9532,-7.6172 3.75,-14.4922 5.7032,-22.1093 1.9531,-7.5782 3.75,-14.375 5.7422,-21.9922 1.9531,-7.461 3.7109,-14.1797 5.7031,-21.6406 1.9531,-7.3047 3.75,-13.8672 5.7422,-21.1719 1.9531,-7.0703 3.7109,-13.4375 5.7031,-20.5078 1.9531,-6.7969 3.7109,-12.8907 5.7422,-19.6875 1.9531,-6.4844 3.7109,-12.3047 5.7422,-18.75 1.914,-6.1328 3.6718,-11.6407 5.7031,-17.7344 1.9141,-5.7813 3.7109,-10.9375 5.7422,-16.6797 1.914,-5.3516 3.6719,-10.1953 5.7031,-15.5469 1.9141,-4.9609 3.7109,-9.414 5.7422,-14.3359 1.9141,-4.6094 3.6719,-8.7109 5.7422,-13.2422 1.875,-4.1797 3.6719,-7.9297 5.7031,-12.0703 1.9141,-3.8281 3.6719,-7.2266 5.7422,-10.9375 1.9141,-3.4766 3.6719,-6.5234 5.7031,-9.8828 1.9141,-3.086 3.6719,-5.8594 5.7422,-8.8281 1.9141,-2.7735 3.6719,-5.2344 5.7422,-7.8907 1.875,-2.4609 3.6719,-4.6093 5.7031,-6.9531 1.9141,-2.1875 3.6719,-4.0625 5.7422,-6.1328 1.9141,-1.9141 3.6719,-3.5547 5.7031,-5.3125 1.9141,-1.6797 3.711,-3.125 5.7422,-4.6484 1.9141,-1.4844 3.711,-2.7344 5.7422,-4.0235 1.9141,-1.25 3.7109,-2.3437 5.7031,-3.4375 1.9532,-1.0937 3.711,-1.9922 5.7422,-2.9297 1.9531,-0.9375 3.711,-1.7187 5.7031,-2.5 1.9532,-0.7812 3.75,-1.4453 5.7422,-2.1093 1.9532,-0.6641 3.75,-1.211 5.7422,-1.7579 1.9531,-0.5468 3.711,-1.0156 5.7031,-1.4843 1.9532,-0.4297 3.75,-0.8203 5.7422,-1.211 1.9532,-0.3906 3.75,-0.7031 5.7032,-0.9765 1.9921,-0.3516 3.75,-0.586 5.7421,-0.8594 1.9532,-0.2344 3.75,-0.4688 5.7422,-0.6641 1.9532,-0.1953 3.711,-0.3515 5.7032,-0.5468 1.9921,-0.1563 3.75,-0.2735 5.7421,-0.4297 1.9532,-0.1563 3.75,-0.2344 5.7032,-0.3516 1.9922,-0.1172 5.7422,-0.2734 5.7422,-0.2734"
       style="fill:#e6e6e6;fill-opacity:1;fill-rule:nonzero;stroke:#000000;stroke-width:7.97011;stroke-linecap:butt;stroke-linejoin:miter;stroke-miterlimit:10;stroke-opacity:1" />
    <path
       id="path4"
       transform="matrix(0.1,0,0,-0.1,0,842)"
       d="m 1133.8672,3812.1875 h 566.9141"
       style="fill:none;stroke:#000000;stroke-width:7.97011;stroke-linecap:butt;stroke-linejoin:miter;stroke-miterlimit:10;stroke-opacity:1" />
  </g>
</svg>
