<?xml version="1.0" encoding="UTF-8" standalone="no"?>
<svg
   xmlns:dc="http://purl.org/dc/elements/1.1/"
   xmlns:cc="http://creativecommons.org/ns#"
   xmlns:rdf="http://www.w3.org/1999/02/22-rdf-syntax-ns#"
   xmlns:svg="http://www.w3.org/2000/svg"
   xmlns="http://www.w3.org/2000/svg"
   xmlns:sodipodi="http://sodipodi.sourceforge.net/DTD/sodipodi-0.dtd"
   xmlns:inkscape="http://www.inkscape.org/namespaces/inkscape"
   sodipodi:docname="basic-algorithm-pspic1.pdf"
   id="svg31"
   version="1.2"
   viewBox="0 0 156.48447 128.17215"
   height="128.17215pt"
   width="156.48447pt">
  <metadata
     id="metadata37">
    <rdf:RDF>
      <cc:Work
         rdf:about="">
        <dc:format>image/svg+xml</dc:format>
        <dc:type
           rdf:resource="http://purl.org/dc/dcmitype/StillImage" />
      </cc:Work>
    </rdf:RDF>
  </metadata>
  <defs
     id="defs35" />
  <sodipodi:namedview
     id="namedview33"
     inkscape:window-height="480"
     inkscape:window-width="640"
     inkscape:pageshadow="2"
     inkscape:pageopacity="0"
     guidetolerance="10"
     gridtolerance="10"
     objecttolerance="10"
     borderopacity="1"
     bordercolor="#666666"
     pagecolor="#ffffff" />
  <g
     transform="translate(-112.98431,-368.72244)"
     id="surface1">
    <path
       id="path2"
       transform="matrix(0.1,0,0,-0.1,0,842)"
       d="M 2692.8906,3455.0391 H 1133.8281"
       style="fill:none;stroke:#000000;stroke-width:7.97011;stroke-linecap:butt;stroke-linejoin:miter;stroke-miterlimit:10;stroke-opacity:1" />
    <path
       id="path4"
       transform="matrix(0.1,0,0,-0.1,0,842)"
       d="M 1133.8281,3455.0391 V 4730.625"
       style="fill:none;stroke:#000000;stroke-width:7.97011;stroke-linecap:butt;stroke-linejoin:miter;stroke-miterlimit:10;stroke-opacity:1" />
    <path
       id="path6"
       transform="matrix(0.1,0,0,-0.1,0,842)"
       d="M 2692.8906,3455.0391 H 1133.8281"
       style="fill:none;stroke:#000000;stroke-width:7.97011;stroke-linecap:butt;stroke-linejoin:miter;stroke-miterlimit:10;stroke-opacity:1" />
    <path
       id="path8"
       transform="matrix(0.1,0,0,-0.1,0,842)"
       d="M 1133.8281,3455.0391 V 4730.625"
       style="fill:none;stroke:#000000;stroke-width:7.97011;stroke-linecap:butt;stroke-linejoin:miter;stroke-miterlimit:10;stroke-opacity:1" />
    <path
       id="path10"
       transform="matrix(0.1,0,0,-0.1,0,842)"
       d="M 1133.8281,3455.0391 V 4730.625"
       style="fill:none;stroke:#000000;stroke-width:7.97011;stroke-linecap:butt;stroke-linejoin:miter;stroke-miterlimit:10;stroke-opacity:1" />
    <path
       id="path12"
       transform="matrix(0.1,0,0,-0.1,0,842)"
       d="M 2692.8906,3455.0391 H 1133.8281"
       style="fill:none;stroke:#000000;stroke-width:7.97011;stroke-linecap:butt;stroke-linejoin:miter;stroke-miterlimit:10;stroke-opacity:1" />
    <path
       id="path14"
       d="m 119.05078,423.50391 c 0,0 13.58594,-14.48438 22.67969,-19.13672 8.94922,-4.57813 18.76172,-9.73828 28.34375,-7.08594 6.57422,1.82031 10.54687,8.30859 14.17187,14.17578 4.0586,6.55859 3.58203,14.375 7.08985,21.25781 1.90625,3.7461 3.24218,8.40235 7.08593,9.92188 4.5586,1.80078 9.25391,-2.01563 14.17188,-2.83594 7.30078,-1.21484 14.59766,-5.78125 21.26172,-2.83203 6.96094,3.07812 12.7539,18.42578 12.7539,18.42578 l -62.36328,21.25781 -63.77734,-53.14843"
       style="fill:#e6e6e6;fill-opacity:1;fill-rule:nonzero;stroke:none" />
    <path
       id="path16"
       transform="matrix(0.1,0,0,-0.1,0,842)"
       d="m 1176.3281,4163.7109 c 0,0 143.086,161.1328 240.9766,212.6172 88.9844,46.7578 187.6172,97.3828 283.4375,70.8594 65.7422,-18.2031 105.4687,-83.0859 141.7187,-141.7578 40.586,-65.586 35.8204,-143.75 70.8985,-212.5781 19.0625,-37.461 32.4219,-84.0235 70.8594,-99.2188 45.5859,-18.0078 92.539,20.1563 141.7187,28.3594 73.0078,12.1484 147.2656,60.1562 212.6172,28.3203 85.1562,-41.4453 141.7187,-240.9375 141.7187,-240.9375"
       style="fill:none;stroke:#000000;stroke-width:7.97011;stroke-linecap:butt;stroke-linejoin:miter;stroke-miterlimit:10;stroke-opacity:1" />
    <path
       id="path18"
       transform="matrix(0.1,0,0,-0.1,0,842)"
       d="m 1148.0078,4234.5703 836.211,-708.6328"
       style="fill:none;stroke:#000000;stroke-width:7.97011;stroke-linecap:butt;stroke-linejoin:miter;stroke-miterlimit:10;stroke-opacity:1" />
    <path
       id="path20"
       transform="matrix(0.1,0,0,-0.1,0,842)"
       d="m 1700.7422,3596.7969 992.1484,354.2969"
       style="fill:none;stroke:#000000;stroke-width:7.97011;stroke-linecap:butt;stroke-linejoin:miter;stroke-miterlimit:10;stroke-opacity:1" />
    <path
       id="path22"
       transform="matrix(0.1,0,0,-0.1,0,842)"
       d="M 1275.5469,4588.9062 2621.9922,3908.5938"
       style="fill:none;stroke:#000000;stroke-width:7.97011;stroke-linecap:butt;stroke-linejoin:miter;stroke-miterlimit:10;stroke-dasharray:50.623, 30.3738;stroke-opacity:1" />
    <path
       id="path24"
       transform="matrix(0.1,0,0,-0.1,0,842)"
       d="M 1346.4063,4729.2187 2692.8906,4048.9063"
       style="fill:none;stroke:#000000;stroke-width:7.97011;stroke-linecap:butt;stroke-linejoin:miter;stroke-miterlimit:10;stroke-dasharray:50.623, 30.3738;stroke-opacity:1" />
    <path
       id="path26"
       d="m 201.39453,407.64844 0.57031,-4.55469 -3.32812,3.16406 2.16015,-0.84765"
       style="fill:#000000;fill-opacity:1;fill-rule:nonzero;stroke:none" />
    <path
       id="path28"
       transform="matrix(0.1,0,0,-0.1,0,842)"
       d="m 1948.7891,4248.75 59.1797,117.1484"
       style="fill:none;stroke:#000000;stroke-width:7.97011;stroke-linecap:butt;stroke-linejoin:miter;stroke-miterlimit:10;stroke-opacity:1" />
  </g>
</svg>
